<svg width="26" height="26" viewBox="0 0 26 26" fill="none" xmlns="http://www.w3.org/2000/svg">
<circle cx="12.9562" cy="13.1661" r="12.469" stroke="white" stroke-width="0.445322"/>
<g clip-path="url(#clip0_503_320)">
<path d="M16.7442 7.14498L16.7442 7.145C16.8318 7.15648 16.9121 7.19942 16.9704 7.2658C17.0286 7.33217 17.0606 7.41746 17.0606 7.50574C17.0606 7.50575 17.0606 7.50576 17.0606 7.50577V9.55125C17.0606 9.64771 17.0223 9.74021 16.9541 9.80842C16.8859 9.87662 16.7934 9.91494 16.6969 9.91494H15.4862C15.1287 9.91494 14.9462 9.97576 14.8478 10.0851C14.7478 10.1961 14.717 10.3752 14.717 10.6646V11.7609H16.6173C16.6173 11.7609 16.6174 11.7609 16.6174 11.7609C16.6691 11.7609 16.7203 11.772 16.7674 11.7933C16.8146 11.8146 16.8567 11.8458 16.8908 11.8847C16.925 11.9236 16.9504 11.9693 16.9655 12.0189C16.9805 12.0684 16.9848 12.1206 16.9781 12.1719M16.7442 7.14498L16.9119 12.1632M16.7442 7.14498L16.7426 7.14481C16.1412 7.08102 15.5369 7.04997 14.9322 7.05181M16.7442 7.14498L14.9322 7.05181M16.9781 12.1719L16.9119 12.1632M16.9781 12.1719L16.9781 12.1718L16.9119 12.1632M16.9781 12.1719L16.683 14.4578L16.683 14.4579C16.6715 14.5454 16.6286 14.6258 16.5622 14.684C16.4958 14.7422 16.4106 14.7743 16.3223 14.7743V14.7075M16.9119 12.1632L16.6168 14.4492C16.6074 14.5207 16.5724 14.5863 16.5182 14.6338C16.464 14.6813 16.3943 14.7075 16.3223 14.7075M16.3223 14.7075L16.3222 14.7743M16.3223 14.7075H14.717V14.7743M16.3222 14.7743L14.9323 7.11861C12.9354 7.11861 11.6945 8.39045 11.6945 10.4377V11.7609H11.6277M16.3222 14.7743H14.717M16.3222 14.7743L14.9322 7.05181M14.717 14.7743H14.6502V19.2913C14.6502 19.3701 14.619 19.4456 14.5633 19.5013C14.5076 19.5569 14.4321 19.5882 14.3533 19.5882H11.9914C11.9126 19.5882 11.8371 19.5569 11.7814 19.5013C11.7258 19.4456 11.6945 19.3701 11.6945 19.2913V14.7743H11.6277M14.717 14.7743V19.2913C14.717 19.3878 14.6787 19.4803 14.6105 19.5485C14.5423 19.6167 14.4498 19.655 14.3533 19.655H11.9914C11.8949 19.655 11.8024 19.6167 11.7342 19.5485C11.666 19.4803 11.6277 19.3878 11.6277 19.2913V14.7743M11.6277 14.7743V14.7075H10.0171C9.93836 14.7075 9.86285 14.6762 9.80717 14.6205C9.75149 14.5649 9.72021 14.4894 9.72021 14.4106V12.1246C9.72021 12.0459 9.75149 11.9704 9.80717 11.9147C9.86285 11.859 9.93836 11.8277 10.0171 11.8277H11.6277V11.7609M11.6277 14.7743H10.0171C9.92064 14.7743 9.82814 14.736 9.75994 14.6678C9.69173 14.5996 9.65342 14.5071 9.65342 14.4106V12.1246C9.65342 12.0282 9.69173 11.9357 9.75994 11.8675C9.82814 11.7993 9.92064 11.7609 10.0171 11.7609H11.6277M11.6277 11.7609V10.4377C11.6277 9.40058 11.9422 8.55269 12.5167 7.96379C13.0914 7.37473 13.9193 7.05183 14.9322 7.05181M14.3528 12.4889H14.3526C14.2563 12.4887 14.164 12.4503 14.0959 12.3821C14.0279 12.3139 13.9897 12.2215 13.9897 12.1252V10.6646C13.9897 10.3591 14.0265 9.98853 14.2364 9.69383C14.4496 9.39447 14.8304 9.18758 15.4856 9.18758L14.3528 12.4889ZM14.3528 12.4889H16.2041L16.0023 14.0475H14.3533C14.2569 14.0475 14.1644 14.0858 14.0962 14.154C14.028 14.2222 13.9897 14.3148 13.9897 14.4112V18.9271H12.355V14.4112C12.355 14.3148 12.3167 14.2222 12.2485 14.154C12.1803 14.0858 12.0878 14.0475 11.9914 14.0475H10.3814V12.4889H11.9914C12.0878 12.4889 12.1803 12.4506 12.2485 12.3824C12.3167 12.3142 12.355 12.2217 12.355 12.1252V10.4377C12.355 9.59726 12.5983 8.93425 13.0374 8.48164C13.4763 8.02929 14.1185 7.77917 14.9323 7.77917C15.4933 7.77917 16.0032 7.80792 16.3333 7.83493V9.18702L15.4857 9.18758L14.3528 12.4889ZM14.717 11.8277H14.6502V11.7609L14.717 11.8277Z" fill="white" stroke="white" stroke-width="0.133597"/>
</g>
<defs>
<clipPath id="clip0_503_320">
<rect width="14.2503" height="14.2503" fill="white" transform="translate(6.05371 6.26355)"/>
</clipPath>
</defs>
</svg>
