<svg width="176" height="110" viewBox="0 0 176 110" fill="none" xmlns="http://www.w3.org/2000/svg">
<g opacity="0.2" clip-path="url(#clip0_503_306)">
<path d="M161.914 49.9369C161.441 49.3089 160.807 48.8198 160.08 48.521C159.353 48.2223 158.558 48.1248 157.78 48.2389C143.007 50.4025 129.225 56.8212 117.039 67.0897C116.732 66.0182 116.359 64.9668 115.921 63.9417C115.166 62.0754 114.386 60.1456 114.756 58.7705C115.041 57.7091 116.522 56.5369 117.954 55.4034C119.73 53.9976 121.744 52.4042 122.654 50.1785C123.467 48.1911 123.163 45.9127 122.869 43.7095C122.694 42.6285 122.6 41.5359 122.586 40.4409C122.599 39.8314 122.445 39.23 122.139 38.7024C121.834 38.1748 121.39 37.7411 120.855 37.4489C120.316 37.1504 119.705 37.0055 119.089 37.0302C118.474 37.0549 117.877 37.2482 117.363 37.5889C106.486 44.7984 98.5005 55.5746 93.875 69.1416C89.2495 55.5771 81.2711 44.7974 70.3959 37.5889C69.8825 37.248 69.2853 37.0547 68.6695 37.03C68.0537 37.0054 67.443 37.1504 66.904 37.4491C66.3691 37.7414 65.9247 38.175 65.6194 38.7026C65.3141 39.2302 65.1595 39.8315 65.1725 40.4409C65.159 41.5359 65.0647 42.6284 64.8902 43.7095C64.5963 45.9126 64.2923 48.1906 65.1051 50.178C66.0151 52.404 68.0286 53.9974 69.8049 55.4034C71.2372 56.5369 72.7182 57.7089 73.0035 58.7703C73.3731 60.1454 72.5927 62.0754 71.8384 63.9417C71.4004 64.9667 71.0268 66.0181 70.7197 67.0896C58.5344 56.821 44.7519 50.4023 29.9785 48.2387C29.2009 48.1252 28.407 48.2228 27.68 48.5213C26.953 48.8199 26.3196 49.3083 25.8461 49.9356C25.3726 50.5629 25.0764 51.3059 24.9886 52.0869C24.9007 52.8678 25.0243 53.6581 25.3466 54.3749C25.8674 55.5991 26.3262 56.8488 26.7213 58.1192C27.6628 60.968 28.6362 63.9137 30.7114 65.7741C33.0574 67.8772 36.3046 68.5954 39.4445 69.2901C42.1823 69.8958 44.7682 70.4678 45.9462 71.8264C47.4236 73.53 47.6292 76.5662 47.8282 79.5026C48.0274 82.4426 48.2335 85.4827 49.7219 87.7521C51.4956 90.4552 54.6078 92.0998 57.3537 93.5509C59.7847 94.8357 62.0809 96.0491 62.802 97.5792C63.9013 99.9124 63.1983 103.068 62.5184 106.12C62.1593 107.576 61.8975 109.054 61.7347 110.544H57.4415C56.91 110.544 56.4003 110.755 56.0245 111.131C55.6487 111.507 55.4376 112.017 55.4376 112.548V120.771C55.4325 136.662 58.0237 152.447 63.1089 167.502L65.81 175.507H62.3579C61.8264 175.507 61.3167 175.718 60.9409 176.094C60.5651 176.47 60.3539 176.98 60.3539 177.511V189.875C60.3539 190.406 60.5651 190.916 60.9409 191.292C61.3167 191.668 61.8264 191.879 62.3579 191.879H125.401C125.933 191.879 126.443 191.668 126.818 191.292C127.194 190.916 127.405 190.406 127.405 189.875V177.511C127.405 176.98 127.194 176.47 126.818 176.094C126.443 175.718 125.933 175.507 125.401 175.507H121.949L124.651 167.502C129.736 152.447 132.327 136.662 132.322 120.771V112.548C132.322 112.017 132.111 111.507 131.735 111.131C131.359 110.756 130.849 110.544 130.318 110.544H126.025C125.862 109.054 125.6 107.576 125.241 106.121C124.561 103.069 123.858 99.9128 124.958 97.5793C125.679 96.0491 127.975 94.8356 130.406 93.551C133.152 92.0999 136.264 90.4552 138.038 87.752C139.526 85.4827 139.732 82.4427 139.931 79.5027C140.13 76.5663 140.335 73.5301 141.813 71.8265C142.991 70.4679 145.577 69.8958 148.315 69.2902C151.455 68.5955 154.702 67.8773 157.048 65.7742C159.123 63.9137 160.097 60.9678 161.038 58.1191C161.433 56.8489 161.892 55.5993 162.412 54.3752C162.735 53.6587 162.859 52.8686 162.771 52.0877C162.684 51.3068 162.388 50.5639 161.914 49.9369ZM118.607 41.5884C118.661 42.481 118.78 43.3706 118.896 44.2397C119.12 45.9222 119.353 47.6622 118.944 48.6614C118.432 49.914 116.925 51.1072 115.467 52.2607C113.524 53.7986 111.515 55.389 110.885 57.7303C110.167 60.4022 111.25 63.0806 112.205 65.4438C112.829 66.9887 113.475 68.5863 113.341 69.6191C113.29 69.9665 113.197 70.3063 113.064 70.6311C107.866 75.5494 103.15 80.953 98.9803 86.7684C97.1135 89.3534 95.4195 91.9058 93.8814 94.3785C93.7276 94.1313 93.565 93.88 93.4079 93.6313C93.5993 89.729 94.0359 85.8427 94.7149 81.9953C97.9309 63.953 105.966 50.3657 118.607 41.5884ZM74.4178 69.6191C74.2839 68.5865 74.9297 66.989 75.5542 65.444C76.5094 63.0808 77.5923 60.4024 76.8741 57.7303C76.2448 55.389 74.2354 53.7986 72.2921 52.2607C70.8344 51.1073 69.327 49.9138 68.8147 48.6614C68.4064 47.6625 68.6384 45.9226 68.863 44.2397C68.9788 43.3706 69.0977 42.481 69.152 41.5879C80.4157 49.4096 88.0203 61.056 91.8189 76.2685C91.4254 77.9099 91.0755 79.5844 90.7691 81.2921C90.3416 83.6904 90.0283 86.0068 89.7996 88.2098C89.4631 87.7302 89.1267 87.2505 88.7786 86.7684C84.6088 80.953 79.8929 75.5493 74.6952 70.631C74.562 70.3062 74.4688 69.9664 74.4178 69.6191ZM66.4275 95.8709C65.136 93.1307 62.1317 91.5429 59.2262 90.0075C56.7947 88.7227 54.2804 87.3939 53.073 85.5537C52.1608 84.1631 51.9986 81.7678 51.8269 79.2318C51.5946 75.8042 51.3315 71.9196 48.9742 69.2009C46.9281 66.841 43.5638 66.0967 40.3102 65.3769C37.6748 64.794 34.9498 64.191 33.3869 62.7901C32.1067 61.6424 31.3394 59.3203 30.527 56.8617C30.0899 55.4588 29.5806 54.0794 29.001 52.7291C28.974 52.6677 28.9638 52.6003 28.9716 52.5337C28.9794 52.4671 29.0048 52.4037 29.0453 52.3503C29.0858 52.2968 29.1398 52.2551 29.2018 52.2295C29.2637 52.2039 29.3314 52.1953 29.3978 52.2046C41.3892 53.9607 52.659 58.6042 62.8942 66.0059C71.1257 71.9586 78.7184 79.702 85.4613 89.0205C90.3273 95.7885 94.5536 102.994 98.0857 110.544H65.7646C65.9249 109.35 66.147 108.164 66.4303 106.992C67.2182 103.454 68.1115 99.445 66.4275 95.8709ZM123.398 187.871H64.3615V179.515H123.397L123.398 187.871ZM128.314 120.771C128.319 136.226 125.799 151.578 120.853 166.22L117.72 175.507H70.0395L66.906 166.221C61.9603 151.578 59.4402 136.226 59.4452 120.771V114.552H128.314L128.314 120.771ZM158.758 52.729C158.179 54.0792 157.669 55.4586 157.232 56.8616C156.42 59.3202 155.653 61.6422 154.372 62.7901C152.809 64.1911 150.084 64.7941 147.449 65.377C144.195 66.0968 140.831 66.8411 138.785 69.2008C136.428 71.9195 136.164 75.8043 135.932 79.2318C135.761 81.7679 135.599 84.1632 134.686 85.5536C133.479 87.394 130.965 88.7226 128.533 90.0076C125.628 91.543 122.623 93.1308 121.332 95.8712C119.648 99.4451 120.541 103.454 121.329 106.992C121.612 108.164 121.835 109.35 121.995 110.544H102.518C100.978 107.132 98.8959 102.912 96.2119 98.2669C97.9982 95.2857 100.019 92.1692 102.298 89.0203C109.041 79.7018 116.633 71.9584 124.865 66.0057C135.1 58.604 146.37 53.9605 158.361 52.2044C158.428 52.1951 158.495 52.2037 158.557 52.2293C158.619 52.2549 158.673 52.2965 158.714 52.35C158.754 52.4035 158.78 52.4668 158.788 52.5334C158.795 52.6 158.785 52.6676 158.758 52.729Z" fill="white"/>
</g>
<defs>
<clipPath id="clip0_503_306">
<rect width="175.902" height="109.549" fill="white" transform="translate(0.361938 0.450684)"/>
</clipPath>
</defs>
</svg>
