<svg width="27" height="26" viewBox="0 0 27 26" fill="none" xmlns="http://www.w3.org/2000/svg">
<circle cx="13.5097" cy="13.1661" r="12.469" stroke="white" stroke-width="0.445322"/>
<path d="M10.7932 7.45117H15.7808C17.6808 7.45117 19.2246 8.99496 19.2246 10.895V15.8826C19.2246 16.796 18.8618 17.6719 18.216 18.3178C17.5701 18.9636 16.6942 19.3264 15.7808 19.3264H10.7932C8.89315 19.3264 7.34937 17.7827 7.34937 15.8826V10.895C7.34937 9.98164 7.7122 9.10569 8.35804 8.45985C9.00388 7.814 9.87983 7.45117 10.7932 7.45117ZM10.6744 8.6387C10.1075 8.6387 9.56383 8.8639 9.16296 9.26477C8.7621 9.66564 8.53689 10.2093 8.53689 10.7762V16.0014C8.53689 17.183 9.49285 18.1389 10.6744 18.1389H15.8996C16.4665 18.1389 17.0102 17.9137 17.411 17.5128C17.8119 17.112 18.0371 16.5683 18.0371 16.0014V10.7762C18.0371 9.59466 17.0811 8.6387 15.8996 8.6387H10.6744ZM16.4043 9.52934C16.6011 9.52934 16.7899 9.60754 16.9291 9.74673C17.0683 9.88592 17.1465 10.0747 17.1465 10.2715C17.1465 10.4684 17.0683 10.6572 16.9291 10.7964C16.7899 10.9356 16.6011 11.0138 16.4043 11.0138C16.2074 11.0138 16.0186 10.9356 15.8794 10.7964C15.7402 10.6572 15.662 10.4684 15.662 10.2715C15.662 10.0747 15.7402 9.88592 15.8794 9.74673C16.0186 9.60754 16.2074 9.52934 16.4043 9.52934ZM13.287 10.42C14.0744 10.42 14.8295 10.7328 15.3863 11.2895C15.943 11.8463 16.2558 12.6014 16.2558 13.3888C16.2558 14.1762 15.943 14.9313 15.3863 15.4881C14.8295 16.0448 14.0744 16.3576 13.287 16.3576C12.4996 16.3576 11.7445 16.0448 11.1877 15.4881C10.631 14.9313 10.3182 14.1762 10.3182 13.3888C10.3182 12.6014 10.631 11.8463 11.1877 11.2895C11.7445 10.7328 12.4996 10.42 13.287 10.42ZM13.287 11.6075C12.8146 11.6075 12.3615 11.7952 12.0274 12.1292C11.6934 12.4633 11.5057 12.9164 11.5057 13.3888C11.5057 13.8612 11.6934 14.3143 12.0274 14.6484C12.3615 14.9824 12.8146 15.1701 13.287 15.1701C13.7594 15.1701 14.2125 14.9824 14.5466 14.6484C14.8806 14.3143 15.0683 13.8612 15.0683 13.3888C15.0683 12.9164 14.8806 12.4633 14.5466 12.1292C14.2125 11.7952 13.7594 11.6075 13.287 11.6075Z" fill="white"/>
</svg>
