<svg width="197" height="140" viewBox="0 0 197 140" fill="none" xmlns="http://www.w3.org/2000/svg">
<g opacity="0.2" clip-path="url(#clip0_503_303)">
<path d="M154.206 66.794C154.184 66.3574 154.017 65.9408 153.731 65.6099C153.446 65.279 153.059 65.0527 152.631 64.9668C149.023 64.269 145.352 63.9558 141.678 64.0325C141.627 64.0392 141.576 64.0357 141.526 64.0221C141.477 64.0086 141.431 63.9853 141.39 63.9537C141.35 63.9221 141.316 63.8827 141.291 63.8379C141.266 63.7931 141.251 63.7438 141.245 63.6928C141.229 63.6468 141.223 63.598 141.227 63.5495C141.231 63.5009 141.244 63.4537 141.267 63.4106C141.289 63.3675 141.32 63.3294 141.358 63.2987C141.396 63.2679 141.439 63.2452 141.486 63.2318C144.619 61.8444 147.903 60.8281 151.272 60.2038C151.538 60.1564 151.792 60.0545 152.016 59.9045C152.241 59.7545 152.433 59.5596 152.579 59.3321C152.726 59.1045 152.823 58.8492 152.867 58.5821C152.91 58.3149 152.897 58.0418 152.83 57.7796C151.534 52.7187 149.41 47.9076 146.544 43.5413C146.508 43.4869 146.469 43.434 146.429 43.3835L145.815 42.6239C145.586 42.3398 145.282 42.1254 144.937 42.0046C144.593 41.8838 144.221 41.8615 143.865 41.9401C138.864 43.1025 134.04 44.9265 129.519 47.364C129.354 47.4662 129.157 47.5018 128.966 47.4637C128.776 47.4256 128.607 47.3166 128.494 47.1586C128.365 47.0213 128.294 46.8394 128.296 46.651C128.298 46.4625 128.372 46.2819 128.503 46.1469C131.375 42.6058 134.715 39.4731 138.431 36.8353C138.653 36.6811 138.84 36.4827 138.982 36.2527C139.124 36.0227 139.217 35.7659 139.255 35.4983C139.293 35.2307 139.276 34.9582 139.204 34.6976C139.132 34.4371 139.007 34.1942 138.838 33.984L138.03 32.9838C135.717 30.025 132.844 27.5521 129.575 25.7067C126.306 23.8613 122.706 22.6798 118.98 22.2298C117.053 21.9816 115.096 22.1725 113.253 22.7884C111.41 23.4042 109.73 24.4291 108.339 25.7863C106.947 27.1436 105.88 28.7982 105.217 30.6265C104.554 32.4547 104.312 34.4094 104.509 36.3444L104.901 40.7036C104.949 41.2397 104.881 41.7798 104.7 42.2868C104.52 42.7938 104.232 43.2555 103.856 43.6401C103.48 44.0248 103.025 44.3232 102.523 44.5148C102.02 44.7063 101.482 44.7865 100.946 44.7498L96.5844 44.4513C94.648 44.2954 92.7013 44.5796 90.89 45.2828C89.0787 45.986 87.4496 47.0899 86.1243 48.5121C84.799 49.9342 83.8119 51.6379 83.2366 53.4957C82.6614 55.3536 82.513 57.3176 82.8024 59.2409C83.3304 62.956 84.5849 66.5304 86.4941 69.7596C88.4033 72.9888 90.9297 75.8093 93.9289 78.0599L94.9679 78.8644C95.2053 79.0456 95.481 79.1699 95.7738 79.2279C94.2668 95.4192 93.9094 116.258 94.7078 141.483H82.6588C84.7186 121.323 83.8436 107.082 81.6077 97.0221C83.495 92.926 84.3712 88.4356 84.1623 83.9294C84.0929 81.9856 83.5855 80.0826 82.6782 78.3627C81.7709 76.6428 80.4871 75.1504 78.9228 73.9971C77.3584 72.8438 75.554 72.0594 73.6442 71.7024C71.7345 71.3455 69.7689 71.4253 67.8943 71.9358L63.6625 73.0337C63.1422 73.1687 62.5987 73.189 62.0698 73.0933C61.5408 72.9976 61.0388 72.7882 60.5985 72.4795C60.1582 72.1708 59.79 71.7702 59.5193 71.3052C59.2486 70.8402 59.0818 70.322 59.0305 69.7863L58.6135 65.4292C58.4515 63.4909 57.8541 61.6143 56.8659 59.9396C55.8777 58.265 54.5242 56.8356 52.9067 55.7583C51.2892 54.6809 49.4494 53.9835 47.5248 53.7182C45.6002 53.4528 43.6407 53.6264 41.7925 54.2259C38.2178 55.3532 34.9001 57.1751 32.0293 59.5875C29.1586 61.9998 26.7911 64.9552 25.0623 68.2846L24.4386 69.442C24.3104 69.6799 24.2326 69.9417 24.21 70.211C24.1874 70.4804 24.2205 70.7515 24.3073 71.0074C24.394 71.2634 24.5325 71.4987 24.7142 71.6986C24.8958 71.8985 25.1167 72.0588 25.363 72.1695C29.5011 74.0766 33.3604 76.5395 36.8342 79.4901C36.9882 79.5986 37.0944 79.7624 37.1307 79.9474C37.167 80.1323 37.1307 80.3242 37.0292 80.483C36.9474 80.6593 36.8016 80.7978 36.6215 80.8704C36.4414 80.943 36.2404 80.9442 36.0594 80.8739C31.168 79.312 26.0907 78.4092 20.9613 78.1893C20.5969 78.1798 20.2369 78.2712 19.9209 78.4532C19.6049 78.6353 19.3452 78.901 19.1702 79.2212L18.7072 80.0811C18.6763 80.1383 18.6484 80.197 18.6235 80.2571C16.6099 85.0773 15.4073 90.198 15.0643 95.4115C15.0466 95.6815 15.0848 95.9523 15.1764 96.2069C15.268 96.4615 15.4111 96.6945 15.5968 96.8912C15.7824 97.0878 16.0067 97.244 16.2554 97.3499C16.5041 97.4558 16.772 97.5092 17.0423 97.5067C20.468 97.5002 23.8828 97.8932 27.2177 98.6777C27.2662 98.6822 27.3131 98.6965 27.3559 98.7198C27.3986 98.743 27.4361 98.7748 27.4662 98.813C27.4963 98.8512 27.5183 98.8952 27.5309 98.9422C27.5435 98.9892 27.5464 99.0383 27.5395 99.0865C27.5436 99.1377 27.5373 99.1891 27.5211 99.2378C27.5049 99.2865 27.4792 99.3315 27.4453 99.37C27.4115 99.4086 27.3703 99.4399 27.3241 99.4623C27.278 99.4846 27.2278 99.4974 27.1766 99.5C23.552 100.104 20.0013 101.089 16.5833 102.439C16.1783 102.602 15.8393 102.896 15.6198 103.274C15.4003 103.652 15.3129 104.092 15.3712 104.525C15.5764 106.047 15.846 107.517 16.1727 108.893L19.8266 124.274C20.119 125.502 20.8162 126.596 21.8058 127.38C22.7953 128.163 24.0196 128.59 25.2811 128.591C25.4986 128.591 25.7159 128.579 25.9319 128.554L41.6171 126.731C43.0199 126.568 44.4913 126.319 45.99 125.991C46.4165 125.898 46.7999 125.665 47.0795 125.329C47.3591 124.994 47.519 124.574 47.5338 124.137C47.6321 120.46 47.3422 116.782 46.6691 113.165C46.654 113.116 46.6489 113.065 46.654 113.014C46.6592 112.963 46.6745 112.913 46.6991 112.868C46.7237 112.823 46.7571 112.784 46.7972 112.752C46.8374 112.72 46.8835 112.696 46.9329 112.683C46.9758 112.66 47.0229 112.646 47.0713 112.641C47.1198 112.637 47.1686 112.643 47.2148 112.658C47.261 112.673 47.3036 112.698 47.3401 112.73C47.3765 112.762 47.4061 112.802 47.4269 112.846C49.3048 115.714 50.8417 118.793 52.0063 122.018C52.0963 122.274 52.238 122.507 52.4225 122.705C52.6069 122.903 52.8302 123.061 53.0783 123.168C53.3263 123.275 53.5939 123.33 53.8642 123.329C54.1345 123.329 54.4016 123.272 54.649 123.163C59.4248 121.057 63.8196 118.174 67.655 114.631C67.7029 114.587 67.7486 114.541 67.7918 114.492L68.4402 113.762C68.6828 113.489 68.8446 113.154 68.9075 112.794C68.9703 112.434 68.9318 112.064 68.7961 111.724C66.8353 106.974 64.2515 102.506 61.1128 98.4377C60.9851 98.2913 60.9177 98.1019 60.9243 97.9077C60.9308 97.7135 61.0107 97.529 61.1479 97.3916C61.2622 97.2418 61.4299 97.1419 61.6159 97.1128C61.802 97.0837 61.9921 97.1277 62.1465 97.2356C66.1041 99.4944 69.7356 102.283 72.9406 105.524C73.1286 105.718 73.3546 105.871 73.6044 105.974C73.8542 106.076 74.1224 106.126 74.3923 106.12C74.6621 106.114 74.9279 106.053 75.173 105.939C75.418 105.826 75.6371 105.663 75.8165 105.461L76.6706 104.5C77.3686 103.734 78.0246 102.931 78.6356 102.094C80.1611 111.464 80.5377 124.192 78.725 141.483H54.1547C53.8601 141.483 53.5692 141.549 53.3036 141.677C53.038 141.805 52.8046 141.991 52.6206 142.221C52.4366 142.452 52.3067 142.721 52.2406 143.008C52.1746 143.296 52.174 143.595 52.2389 143.882L63.5228 193.923C64.0811 196.45 65.4866 198.709 67.5055 200.325C69.5243 201.941 72.0348 202.816 74.6195 202.805H101.677C104.262 202.816 106.773 201.941 108.792 200.325C110.81 198.709 112.216 196.45 112.774 193.923L124.058 143.882C124.123 143.594 124.123 143.296 124.057 143.008C123.991 142.72 123.861 142.452 123.677 142.221C123.493 141.991 123.259 141.805 122.994 141.677C122.728 141.549 122.437 141.483 122.142 141.483H98.6384C97.6593 110.621 98.518 89.5808 100.119 75.2411C102.159 72.7112 104.425 70.3737 106.89 68.2578C107.022 68.1236 107.201 68.0456 107.389 68.0399C107.577 68.0342 107.76 68.1013 107.9 68.2272C108.06 68.3369 108.173 68.5035 108.215 68.6932C108.257 68.8829 108.226 69.0815 108.127 69.2489C105.79 73.8261 104.073 78.6945 103.02 83.7257C102.949 84.0841 102.98 84.4553 103.108 84.7974C103.236 85.1396 103.456 85.4393 103.745 85.6629L104.517 86.2605C104.568 86.3002 104.622 86.3374 104.677 86.3721C109.098 89.1468 113.948 91.1695 119.03 92.3583C119.293 92.4198 119.566 92.4262 119.832 92.3772C120.098 92.3282 120.351 92.2248 120.575 92.0734C120.799 91.9221 120.989 91.7261 121.134 91.4976C121.279 91.2692 121.375 91.0133 121.417 90.7459C121.968 87.3607 122.912 84.0514 124.23 80.8855C124.243 80.8385 124.264 80.7945 124.294 80.7561C124.324 80.7178 124.361 80.6859 124.404 80.6624C124.447 80.6389 124.493 80.6243 124.542 80.6194C124.59 80.6146 124.639 80.6196 124.685 80.6342C124.736 80.6385 124.786 80.6531 124.831 80.677C124.877 80.7009 124.917 80.7336 124.949 80.7734C124.982 80.8131 125.006 80.8589 125.021 80.9081C125.035 80.9574 125.04 81.009 125.034 81.06C125.038 84.7389 125.429 88.407 126.203 92.0033C126.298 92.43 126.532 92.8128 126.869 93.0913C127.205 93.3697 127.625 93.528 128.061 93.541C128.545 93.5553 129.024 93.5625 129.498 93.5625C130.527 93.5625 131.531 93.5286 132.496 93.4614L148.248 92.3594C149.618 92.263 150.905 91.6669 151.866 90.684C152.827 89.7011 153.394 88.3997 153.461 87.026L154.222 71.2348C154.29 69.8215 154.285 68.3274 154.206 66.794ZM74.2534 101.303C71.1691 98.4381 67.7699 95.9329 64.121 93.8357C63.1832 93.2658 62.0736 93.0482 60.9903 93.2219C59.907 93.3956 58.9207 93.9492 58.2076 94.7839C57.4722 95.6036 57.0468 96.6554 57.0055 97.7564C56.9642 98.8575 57.3094 99.9382 57.9813 100.811C60.6462 104.274 62.8914 108.042 64.6699 112.034C61.7425 114.684 58.4677 116.922 54.936 118.686C53.7777 115.905 52.3682 113.235 50.7253 110.71C50.1788 109.865 49.3567 109.236 48.399 108.93C47.4413 108.624 46.4072 108.66 45.473 109.032C44.5387 109.403 43.7621 110.088 43.2753 110.969C42.7886 111.849 42.622 112.872 42.8037 113.862C43.3263 116.697 43.6031 119.572 43.631 122.454C42.7881 122.608 41.9628 122.732 41.1639 122.824L25.4792 124.647C25.0698 124.695 24.6572 124.59 24.3197 124.354C23.9821 124.117 23.743 123.764 23.6478 123.363L19.9939 107.983C19.8079 107.199 19.6419 106.381 19.4978 105.535C22.2128 104.576 25.0057 103.853 27.8451 103.375C28.8364 103.207 29.739 102.701 30.3991 101.942C31.0592 101.183 31.436 100.218 31.4654 99.2116C31.4947 98.2055 31.1747 97.2204 30.56 96.424C29.9452 95.6276 29.0737 95.0692 28.0939 94.844C25.1624 94.1617 22.1748 93.7487 19.1683 93.6102C19.6154 89.6843 20.5955 85.8379 22.0815 82.1774C26.4371 82.4852 30.7409 83.309 34.9027 84.6316C35.9514 84.9656 37.0839 84.9209 38.1032 84.5056C39.1225 84.0902 39.9642 83.3303 40.4819 82.358C41.0216 81.4016 41.204 80.2841 40.9965 79.2054C40.7891 78.1267 40.2053 77.157 39.3495 76.4695C36.133 73.7539 32.619 71.4126 28.8751 69.4905C31.9241 63.9944 36.9604 59.8768 42.9484 57.9842C44.2393 57.5565 45.6105 57.4283 46.9581 57.6094C48.3058 57.7905 49.5946 58.2761 50.7272 59.0295C51.8597 59.7829 52.8063 60.7844 53.4952 61.9581C54.1841 63.1318 54.5974 64.447 54.7037 65.8042L55.1208 70.1613C55.2741 71.747 55.919 73.2451 56.9651 74.4456C56.7887 74.5705 56.6343 74.7241 56.5085 74.9L33.8031 107.366C33.6528 107.577 33.5458 107.816 33.4882 108.069C33.4306 108.322 33.4236 108.584 33.4677 108.84C33.5117 109.096 33.6058 109.34 33.7446 109.559C33.8835 109.778 34.0643 109.968 34.2766 110.117C34.4889 110.266 34.7285 110.371 34.9816 110.427C35.2348 110.482 35.4964 110.487 35.7515 110.441C36.0066 110.395 36.25 110.299 36.4678 110.158C36.6856 110.018 36.8734 109.835 37.0204 109.621L59.7258 77.1555C59.8477 76.9769 59.9391 76.7792 59.9961 76.5705C61.4806 77.1444 63.1073 77.2387 64.648 76.8402L68.8798 75.7423C70.19 75.3782 71.5657 75.3172 72.9029 75.564C74.2401 75.8108 75.5037 76.3588 76.5981 77.1666C77.6925 77.9744 78.5891 79.0209 79.22 80.2268C79.8509 81.4327 80.1996 82.7665 80.2397 84.1273C80.5101 90.4082 78.368 96.5543 74.2534 101.303ZM108.942 193.057C108.577 194.711 107.657 196.19 106.335 197.248C105.013 198.306 103.369 198.879 101.677 198.872H74.6195C72.9272 198.879 71.2835 198.306 69.9617 197.248C68.6399 196.19 67.7197 194.711 67.3542 193.057L56.6114 145.415H119.686L108.942 193.057ZM150.299 71.0451L149.538 86.8363C149.518 87.2484 149.348 87.6388 149.059 87.9336C148.771 88.2284 148.385 88.4072 147.974 88.4361L132.222 89.538C131.42 89.5942 130.586 89.6245 129.729 89.6291C129.226 86.7907 128.969 83.9139 128.961 81.031C128.963 80.0198 128.61 79.0402 127.965 78.2622C127.319 77.4843 126.422 76.9573 125.429 76.7727C125.151 76.7185 124.868 76.6912 124.584 76.691C123.725 76.6905 122.886 76.9478 122.175 77.4299C121.463 77.912 120.913 78.5965 120.595 79.3951C119.445 82.1796 118.551 85.0634 117.924 88.0106C114.128 86.9289 110.498 85.3338 107.133 83.2693C108.146 79.0168 109.66 74.8997 111.642 71.0042C112.142 70.0226 112.282 68.8966 112.039 67.822C111.796 66.7475 111.184 65.7921 110.31 65.1221C109.456 64.433 108.384 64.0707 107.288 64.0998C106.191 64.1289 105.14 64.5476 104.323 65.2811C101.123 68.0155 98.2425 71.105 95.7383 74.4903C90.8194 70.5824 87.5828 64.9361 86.694 58.7124C86.4829 57.3674 86.5802 55.992 86.9784 54.6903C87.3766 53.3885 88.0653 52.1945 88.9924 51.1986C89.9195 50.2026 91.0607 49.4308 92.3297 48.9416C93.5987 48.4524 94.9622 48.2586 96.317 48.3749L100.679 48.6734C102.266 48.7804 103.847 48.3876 105.201 47.55C105.295 47.7446 105.422 47.9222 105.574 48.0753L133.866 75.7969C134.238 76.1616 134.74 76.3634 135.26 76.3577C135.781 76.3521 136.279 76.1395 136.643 75.7668C137.007 75.3941 137.209 74.8917 137.203 74.3703C137.197 73.8488 136.985 73.3509 136.613 72.9862L108.322 45.2646C108.165 45.115 107.986 44.9926 107.789 44.9022C108.596 43.5293 108.955 41.9378 108.813 40.3509L108.421 35.9917C108.276 34.6381 108.44 33.2691 108.902 31.9884C109.363 30.7078 110.109 29.5489 111.083 28.5994C112.058 27.65 113.235 26.935 114.527 26.5084C115.818 26.0818 117.189 25.9548 118.537 26.1371C124.77 26.894 130.477 30.0119 134.485 34.8504C131.159 37.4301 128.137 40.3796 125.475 43.642C124.761 44.4756 124.365 45.5363 124.36 46.6348C124.354 47.7332 124.739 48.7978 125.446 49.6384C126.133 50.4984 127.101 51.09 128.179 51.3104C129.257 51.5307 130.379 51.3658 131.348 50.8443C135.195 48.7764 139.274 47.1727 143.498 46.0669C145.632 49.3906 147.303 52.9901 148.465 56.7661C145.536 57.4569 142.676 58.414 139.92 59.6254C138.998 60.0274 138.244 60.737 137.786 61.6332C137.329 62.5294 137.195 63.5567 137.409 64.5402C137.623 65.5237 138.171 66.4025 138.96 67.0269C139.748 67.6513 140.729 67.9825 141.734 67.9643C144.613 67.91 147.491 68.1052 150.336 68.5478C150.35 69.4053 150.337 70.2408 150.299 71.0451Z" fill="white"/>
</g>
<defs>
<clipPath id="clip0_503_303">
<rect width="196.387" height="139.386" fill="white" transform="translate(0 0.614136)"/>
</clipPath>
</defs>
</svg>
