<svg width="27" height="26" viewBox="0 0 27 26" fill="none" xmlns="http://www.w3.org/2000/svg">
<circle cx="13.4029" cy="13.1661" r="12.469" stroke="white" stroke-width="0.445322"/>
<path d="M20.0084 8.64453C19.4147 8.93547 18.8328 9.05363 18.2272 9.23235C17.5615 8.48124 16.5747 8.43968 15.6265 8.79475C14.6782 9.14982 14.0572 10.0179 14.0708 11.0136V11.6074C12.144 11.6567 10.4281 10.7791 9.32071 9.23235C9.32071 9.23235 6.83759 13.6458 11.6958 15.7637C10.5842 16.5042 9.47568 17.0035 8.13318 16.9513C10.0973 18.0218 12.2379 18.39 14.091 17.852C16.2167 17.2345 17.9635 15.6414 18.6339 13.2551C18.8339 12.5293 18.9331 11.7795 18.929 11.0267C18.9278 10.8789 19.8256 9.38079 20.0084 8.64393V8.64453Z" stroke="white" stroke-width="0.890645" stroke-linecap="round" stroke-linejoin="round"/>
</svg>
