<svg width="34" height="44" viewBox="0 0 34 44" fill="none" xmlns="http://www.w3.org/2000/svg">
<mask id="path-1-outside-1_503_36" maskUnits="userSpaceOnUse" x="0.236572" y="0.124023" width="34" height="44" fill="black">
<rect fill="white" x="0.236572" y="0.124023" width="34" height="44"/>
<path d="M33.4573 13.8356C33.4257 13.7784 33.383 13.728 33.3317 13.6875C33.2804 13.6469 33.2216 13.617 33.1586 13.5994C31.737 13.2017 30.0681 13.4458 28.5801 14.269C27.6861 14.7553 26.9145 15.4389 26.3239 16.2678L26.3121 16.2144C25.8603 14.1761 25.8603 13.406 26.3121 11.3677L26.6506 9.83979C26.6666 9.76771 26.6662 9.69297 26.6494 9.62107C26.6326 9.54918 26.6 9.48196 26.5537 9.42439C26.5075 9.36682 26.449 9.32035 26.3824 9.28843C26.3158 9.2565 26.243 9.23993 26.1691 9.23993H20.032C19.9582 9.23993 19.8853 9.2565 19.8188 9.28842C19.7522 9.32035 19.6936 9.36681 19.6474 9.42439C19.6012 9.48196 19.5685 9.54917 19.5518 9.62107C19.535 9.69297 19.5346 9.76771 19.5505 9.83979L19.8891 11.3677C20.3408 13.406 20.3408 14.1761 19.8891 16.2144L19.5505 17.7423C19.5488 17.7503 19.548 17.7583 19.5466 17.7664C19.5451 17.7756 19.5432 17.7847 19.5421 17.794C19.5411 17.8032 19.5409 17.8123 19.5404 17.8215C19.5399 17.8307 19.5391 17.8398 19.5391 17.849C19.5391 17.8582 19.5399 17.8673 19.5404 17.8765C19.5409 17.8857 19.5411 17.8949 19.5421 17.9041C19.5432 17.9133 19.5451 17.9225 19.5466 17.9316C19.548 17.9397 19.5488 17.9477 19.5505 17.9558L19.8891 19.4837C20.3408 21.522 20.3408 22.292 19.8891 24.3303L19.6362 25.4717H15.2358L14.9828 24.3303C14.531 22.292 14.531 21.522 14.9828 19.4837L15.3214 17.9558C15.3231 17.9478 15.3239 17.9397 15.3253 17.9316C15.3269 17.9225 15.3288 17.9133 15.3298 17.9041C15.3309 17.8948 15.331 17.8857 15.3315 17.8765C15.332 17.8673 15.3329 17.8582 15.3329 17.849C15.3329 17.8398 15.332 17.8307 15.3315 17.8215C15.331 17.8124 15.3308 17.8031 15.3298 17.794C15.3288 17.7848 15.3269 17.7756 15.3253 17.7664C15.3239 17.7584 15.3231 17.7503 15.3214 17.7423L14.9828 16.2144C14.5311 14.1761 14.5311 13.406 14.9828 11.3677L15.3214 9.83979C15.3231 9.8318 15.3239 9.82374 15.3253 9.81568C15.3269 9.80649 15.3288 9.79739 15.3298 9.78812C15.3309 9.77884 15.331 9.76974 15.3315 9.76054C15.332 9.75135 15.3329 9.74226 15.3329 9.73306C15.3329 9.72385 15.332 9.71473 15.3315 9.70557C15.331 9.69641 15.3308 9.68719 15.3298 9.678C15.3288 9.66881 15.3269 9.65961 15.3253 9.65043C15.3239 9.64241 15.3231 9.63434 15.3214 9.62632L14.9828 8.09842C14.531 6.06011 14.531 5.29009 14.9828 3.25179L15.3214 1.72388C15.3374 1.6518 15.3369 1.57706 15.3202 1.50516C15.3034 1.43327 15.2707 1.36605 15.2245 1.30848C15.1783 1.25091 15.1197 1.20444 15.0532 1.17252C14.9866 1.14059 14.9137 1.12402 14.8399 1.12402H8.70279C8.62896 1.12402 8.55608 1.14059 8.48951 1.17252C8.42295 1.20445 8.3644 1.25091 8.31819 1.30848C8.27197 1.36606 8.23928 1.43327 8.22251 1.50516C8.20574 1.57706 8.20533 1.6518 8.2213 1.72388L8.55986 3.25179C9.0116 5.29009 9.0116 6.06011 8.55986 8.09842L8.54095 8.18377C7.94088 7.28021 7.12871 6.53732 6.17538 6.01997C4.68739 5.19676 3.01853 4.9528 1.5969 5.35042C1.53394 5.36803 1.4751 5.39798 1.42382 5.43853C1.37253 5.47909 1.32982 5.52943 1.29818 5.58664C1.26653 5.64386 1.24658 5.70679 1.23949 5.77179C1.23239 5.83678 1.23829 5.90254 1.25684 5.96523C1.67557 7.38087 2.76912 8.66476 4.2571 9.48783C5.22706 10.0359 6.31962 10.3305 7.43365 10.3441C7.72948 10.3436 8.02476 10.3186 8.31648 10.2695L8.55984 11.3677C9.01153 13.406 9.01153 14.1761 8.55984 16.2144L8.22128 17.7423C8.21951 17.7502 8.21872 17.7583 8.21735 17.7664C8.21579 17.7756 8.2139 17.7847 8.21286 17.7939C8.21182 17.8032 8.21164 17.8123 8.21113 17.8215C8.21061 17.8307 8.20979 17.8398 8.20979 17.849C8.20979 17.8582 8.21061 17.8673 8.21113 17.8765C8.21164 17.8856 8.21183 17.8949 8.21286 17.904C8.21389 17.9132 8.21579 17.9224 8.21735 17.9316C8.21872 17.9396 8.21955 17.9477 8.22128 17.9557L8.55984 19.4836C9.01158 21.5219 9.01158 22.292 8.55984 24.3303L8.25556 25.7034C5.69404 27.5111 4.28664 29.9045 4.28664 32.467C4.28664 35.1415 5.81172 37.6227 8.58087 39.4537C8.7767 39.5808 8.91841 39.776 8.97853 40.0015C9.03864 40.2271 9.0129 40.4669 8.90628 40.6746L8.00267 42.4126C7.9636 42.4877 7.94454 42.5717 7.94735 42.6564C7.95015 42.7411 7.97473 42.8236 8.0187 42.896C8.06267 42.9684 8.12456 43.0283 8.19839 43.0698C8.27222 43.1114 8.35552 43.1332 8.44024 43.1332H26.5122C26.597 43.1332 26.6803 43.1114 26.7541 43.0698C26.8279 43.0283 26.8898 42.9684 26.9338 42.896C26.9778 42.8236 27.0023 42.7411 27.0051 42.6564C27.0079 42.5717 26.9889 42.4877 26.9498 42.4126L26.0463 40.6746C25.9396 40.4669 25.9139 40.2271 25.974 40.0015C26.0341 39.776 26.1758 39.5808 26.3717 39.4537C29.1408 37.6227 30.6658 35.1414 30.6658 32.467C30.6658 29.873 29.2233 27.4526 26.6017 25.6374L26.3121 24.3302C25.8603 22.2919 25.8603 21.5218 26.3121 19.4836L26.5228 18.5325C26.7873 18.5725 27.0545 18.5927 27.322 18.5931C28.436 18.5794 29.5285 18.2849 30.4984 17.7368C31.9864 16.9137 33.08 15.6298 33.4987 14.2142C33.5173 14.1515 33.5231 14.0857 33.516 14.0207C33.5089 13.9557 33.489 13.8928 33.4573 13.8356ZM20.8522 11.1543L20.6465 10.2262H25.5548L25.3491 11.1543C24.8685 13.3228 24.8685 14.2592 25.3491 16.4278L25.5548 17.3558H20.6464L20.8521 16.4278C21.3326 14.2592 21.3327 13.3228 20.8522 11.1543ZM20.8522 19.2702L20.6465 18.3421H25.5548L25.3491 19.2702C24.8685 21.4387 24.8685 22.3751 25.3491 24.5436L25.5548 25.4716H20.6464L20.8521 24.5436C21.3326 22.3751 21.3327 21.4387 20.8522 19.2702ZM9.5229 19.2702L9.31726 18.3421H14.2255L14.0199 19.2702C13.5393 21.4387 13.5393 22.3751 14.0199 24.5436L14.2255 25.4716H9.31721L9.52285 24.5436C10.0034 22.3751 10.0034 21.4387 9.5229 19.2702ZM9.5229 11.1543L9.31726 10.2262H14.2255L14.0199 11.1543C13.5393 13.3228 13.5393 14.2592 14.0199 16.4278L14.2255 17.3558H9.31721L9.52285 16.4278C10.0034 14.2592 10.0034 13.3228 9.5229 11.1543ZM9.5229 3.03844L9.31726 2.11039H14.2255L14.0199 3.03844C13.5393 5.20693 13.5393 6.14337 14.0199 8.31186L14.2255 9.23991H9.31721L9.52285 8.31186C10.0034 6.14337 10.0034 5.20693 9.5229 3.03844ZM4.7346 8.62474C3.65599 8.02814 2.82553 7.15976 2.39045 6.19083C3.44222 6.04398 4.6193 6.28641 5.69799 6.88306C6.7766 7.4796 7.60706 8.34809 8.04214 9.31707C6.99005 9.46353 5.81313 9.22139 4.7346 8.62474ZM29.6795 32.467C29.6795 34.7994 28.3116 36.9885 25.8277 38.631C25.4281 38.8921 25.1398 39.2923 25.0185 39.7539C24.8972 40.2155 24.9516 40.7058 25.1711 41.1296L25.7001 42.1469H9.25251L9.78141 41.1296C10.001 40.7058 10.0554 40.2156 9.93406 39.7539C9.81276 39.2923 9.52441 38.8922 9.12489 38.6311C6.64095 36.9886 5.27298 34.7995 5.27298 32.467C5.27298 30.2114 6.55843 28.0823 8.89682 26.458H26.0557C28.3941 28.0823 29.6795 30.2114 29.6795 32.467ZM30.021 16.8738C28.9423 17.4704 27.7654 17.7128 26.7135 17.566C27.1484 16.5971 27.9789 15.7287 29.0576 15.132C30.1363 14.5354 31.3131 14.2931 32.3651 14.4398C31.9301 15.4087 31.0996 16.2771 30.021 16.8738Z"/>
</mask>
<path d="M33.4573 13.8356C33.4257 13.7784 33.383 13.728 33.3317 13.6875C33.2804 13.6469 33.2216 13.617 33.1586 13.5994C31.737 13.2017 30.0681 13.4458 28.5801 14.269C27.6861 14.7553 26.9145 15.4389 26.3239 16.2678L26.3121 16.2144C25.8603 14.1761 25.8603 13.406 26.3121 11.3677L26.6506 9.83979C26.6666 9.76771 26.6662 9.69297 26.6494 9.62107C26.6326 9.54918 26.6 9.48196 26.5537 9.42439C26.5075 9.36682 26.449 9.32035 26.3824 9.28843C26.3158 9.2565 26.243 9.23993 26.1691 9.23993H20.032C19.9582 9.23993 19.8853 9.2565 19.8188 9.28842C19.7522 9.32035 19.6936 9.36681 19.6474 9.42439C19.6012 9.48196 19.5685 9.54917 19.5518 9.62107C19.535 9.69297 19.5346 9.76771 19.5505 9.83979L19.8891 11.3677C20.3408 13.406 20.3408 14.1761 19.8891 16.2144L19.5505 17.7423C19.5488 17.7503 19.548 17.7583 19.5466 17.7664C19.5451 17.7756 19.5432 17.7847 19.5421 17.794C19.5411 17.8032 19.5409 17.8123 19.5404 17.8215C19.5399 17.8307 19.5391 17.8398 19.5391 17.849C19.5391 17.8582 19.5399 17.8673 19.5404 17.8765C19.5409 17.8857 19.5411 17.8949 19.5421 17.9041C19.5432 17.9133 19.5451 17.9225 19.5466 17.9316C19.548 17.9397 19.5488 17.9477 19.5505 17.9558L19.8891 19.4837C20.3408 21.522 20.3408 22.292 19.8891 24.3303L19.6362 25.4717H15.2358L14.9828 24.3303C14.531 22.292 14.531 21.522 14.9828 19.4837L15.3214 17.9558C15.3231 17.9478 15.3239 17.9397 15.3253 17.9316C15.3269 17.9225 15.3288 17.9133 15.3298 17.9041C15.3309 17.8948 15.331 17.8857 15.3315 17.8765C15.332 17.8673 15.3329 17.8582 15.3329 17.849C15.3329 17.8398 15.332 17.8307 15.3315 17.8215C15.331 17.8124 15.3308 17.8031 15.3298 17.794C15.3288 17.7848 15.3269 17.7756 15.3253 17.7664C15.3239 17.7584 15.3231 17.7503 15.3214 17.7423L14.9828 16.2144C14.5311 14.1761 14.5311 13.406 14.9828 11.3677L15.3214 9.83979C15.3231 9.8318 15.3239 9.82374 15.3253 9.81568C15.3269 9.80649 15.3288 9.79739 15.3298 9.78812C15.3309 9.77884 15.331 9.76974 15.3315 9.76054C15.332 9.75135 15.3329 9.74226 15.3329 9.73306C15.3329 9.72385 15.332 9.71473 15.3315 9.70557C15.331 9.69641 15.3308 9.68719 15.3298 9.678C15.3288 9.66881 15.3269 9.65961 15.3253 9.65043C15.3239 9.64241 15.3231 9.63434 15.3214 9.62632L14.9828 8.09842C14.531 6.06011 14.531 5.29009 14.9828 3.25179L15.3214 1.72388C15.3374 1.6518 15.3369 1.57706 15.3202 1.50516C15.3034 1.43327 15.2707 1.36605 15.2245 1.30848C15.1783 1.25091 15.1197 1.20444 15.0532 1.17252C14.9866 1.14059 14.9137 1.12402 14.8399 1.12402H8.70279C8.62896 1.12402 8.55608 1.14059 8.48951 1.17252C8.42295 1.20445 8.3644 1.25091 8.31819 1.30848C8.27197 1.36606 8.23928 1.43327 8.22251 1.50516C8.20574 1.57706 8.20533 1.6518 8.2213 1.72388L8.55986 3.25179C9.0116 5.29009 9.0116 6.06011 8.55986 8.09842L8.54095 8.18377C7.94088 7.28021 7.12871 6.53732 6.17538 6.01997C4.68739 5.19676 3.01853 4.9528 1.5969 5.35042C1.53394 5.36803 1.4751 5.39798 1.42382 5.43853C1.37253 5.47909 1.32982 5.52943 1.29818 5.58664C1.26653 5.64386 1.24658 5.70679 1.23949 5.77179C1.23239 5.83678 1.23829 5.90254 1.25684 5.96523C1.67557 7.38087 2.76912 8.66476 4.2571 9.48783C5.22706 10.0359 6.31962 10.3305 7.43365 10.3441C7.72948 10.3436 8.02476 10.3186 8.31648 10.2695L8.55984 11.3677C9.01153 13.406 9.01153 14.1761 8.55984 16.2144L8.22128 17.7423C8.21951 17.7502 8.21872 17.7583 8.21735 17.7664C8.21579 17.7756 8.2139 17.7847 8.21286 17.7939C8.21182 17.8032 8.21164 17.8123 8.21113 17.8215C8.21061 17.8307 8.20979 17.8398 8.20979 17.849C8.20979 17.8582 8.21061 17.8673 8.21113 17.8765C8.21164 17.8856 8.21183 17.8949 8.21286 17.904C8.21389 17.9132 8.21579 17.9224 8.21735 17.9316C8.21872 17.9396 8.21955 17.9477 8.22128 17.9557L8.55984 19.4836C9.01158 21.5219 9.01158 22.292 8.55984 24.3303L8.25556 25.7034C5.69404 27.5111 4.28664 29.9045 4.28664 32.467C4.28664 35.1415 5.81172 37.6227 8.58087 39.4537C8.7767 39.5808 8.91841 39.776 8.97853 40.0015C9.03864 40.2271 9.0129 40.4669 8.90628 40.6746L8.00267 42.4126C7.9636 42.4877 7.94454 42.5717 7.94735 42.6564C7.95015 42.7411 7.97473 42.8236 8.0187 42.896C8.06267 42.9684 8.12456 43.0283 8.19839 43.0698C8.27222 43.1114 8.35552 43.1332 8.44024 43.1332H26.5122C26.597 43.1332 26.6803 43.1114 26.7541 43.0698C26.8279 43.0283 26.8898 42.9684 26.9338 42.896C26.9778 42.8236 27.0023 42.7411 27.0051 42.6564C27.0079 42.5717 26.9889 42.4877 26.9498 42.4126L26.0463 40.6746C25.9396 40.4669 25.9139 40.2271 25.974 40.0015C26.0341 39.776 26.1758 39.5808 26.3717 39.4537C29.1408 37.6227 30.6658 35.1414 30.6658 32.467C30.6658 29.873 29.2233 27.4526 26.6017 25.6374L26.3121 24.3302C25.8603 22.2919 25.8603 21.5218 26.3121 19.4836L26.5228 18.5325C26.7873 18.5725 27.0545 18.5927 27.322 18.5931C28.436 18.5794 29.5285 18.2849 30.4984 17.7368C31.9864 16.9137 33.08 15.6298 33.4987 14.2142C33.5173 14.1515 33.5231 14.0857 33.516 14.0207C33.5089 13.9557 33.489 13.8928 33.4573 13.8356ZM20.8522 11.1543L20.6465 10.2262H25.5548L25.3491 11.1543C24.8685 13.3228 24.8685 14.2592 25.3491 16.4278L25.5548 17.3558H20.6464L20.8521 16.4278C21.3326 14.2592 21.3327 13.3228 20.8522 11.1543ZM20.8522 19.2702L20.6465 18.3421H25.5548L25.3491 19.2702C24.8685 21.4387 24.8685 22.3751 25.3491 24.5436L25.5548 25.4716H20.6464L20.8521 24.5436C21.3326 22.3751 21.3327 21.4387 20.8522 19.2702ZM9.5229 19.2702L9.31726 18.3421H14.2255L14.0199 19.2702C13.5393 21.4387 13.5393 22.3751 14.0199 24.5436L14.2255 25.4716H9.31721L9.52285 24.5436C10.0034 22.3751 10.0034 21.4387 9.5229 19.2702ZM9.5229 11.1543L9.31726 10.2262H14.2255L14.0199 11.1543C13.5393 13.3228 13.5393 14.2592 14.0199 16.4278L14.2255 17.3558H9.31721L9.52285 16.4278C10.0034 14.2592 10.0034 13.3228 9.5229 11.1543ZM9.5229 3.03844L9.31726 2.11039H14.2255L14.0199 3.03844C13.5393 5.20693 13.5393 6.14337 14.0199 8.31186L14.2255 9.23991H9.31721L9.52285 8.31186C10.0034 6.14337 10.0034 5.20693 9.5229 3.03844ZM4.7346 8.62474C3.65599 8.02814 2.82553 7.15976 2.39045 6.19083C3.44222 6.04398 4.6193 6.28641 5.69799 6.88306C6.7766 7.4796 7.60706 8.34809 8.04214 9.31707C6.99005 9.46353 5.81313 9.22139 4.7346 8.62474ZM29.6795 32.467C29.6795 34.7994 28.3116 36.9885 25.8277 38.631C25.4281 38.8921 25.1398 39.2923 25.0185 39.7539C24.8972 40.2155 24.9516 40.7058 25.1711 41.1296L25.7001 42.1469H9.25251L9.78141 41.1296C10.001 40.7058 10.0554 40.2156 9.93406 39.7539C9.81276 39.2923 9.52441 38.8922 9.12489 38.6311C6.64095 36.9886 5.27298 34.7995 5.27298 32.467C5.27298 30.2114 6.55843 28.0823 8.89682 26.458H26.0557C28.3941 28.0823 29.6795 30.2114 29.6795 32.467ZM30.021 16.8738C28.9423 17.4704 27.7654 17.7128 26.7135 17.566C27.1484 16.5971 27.9789 15.7287 29.0576 15.132C30.1363 14.5354 31.3131 14.2931 32.3651 14.4398C31.9301 15.4087 31.0996 16.2771 30.021 16.8738Z" fill="#285A43"/>
<path d="M33.4573 13.8356C33.4257 13.7784 33.383 13.728 33.3317 13.6875C33.2804 13.6469 33.2216 13.617 33.1586 13.5994C31.737 13.2017 30.0681 13.4458 28.5801 14.269C27.6861 14.7553 26.9145 15.4389 26.3239 16.2678L26.3121 16.2144C25.8603 14.1761 25.8603 13.406 26.3121 11.3677L26.6506 9.83979C26.6666 9.76771 26.6662 9.69297 26.6494 9.62107C26.6326 9.54918 26.6 9.48196 26.5537 9.42439C26.5075 9.36682 26.449 9.32035 26.3824 9.28843C26.3158 9.2565 26.243 9.23993 26.1691 9.23993H20.032C19.9582 9.23993 19.8853 9.2565 19.8188 9.28842C19.7522 9.32035 19.6936 9.36681 19.6474 9.42439C19.6012 9.48196 19.5685 9.54917 19.5518 9.62107C19.535 9.69297 19.5346 9.76771 19.5505 9.83979L19.8891 11.3677C20.3408 13.406 20.3408 14.1761 19.8891 16.2144L19.5505 17.7423C19.5488 17.7503 19.548 17.7583 19.5466 17.7664C19.5451 17.7756 19.5432 17.7847 19.5421 17.794C19.5411 17.8032 19.5409 17.8123 19.5404 17.8215C19.5399 17.8307 19.5391 17.8398 19.5391 17.849C19.5391 17.8582 19.5399 17.8673 19.5404 17.8765C19.5409 17.8857 19.5411 17.8949 19.5421 17.9041C19.5432 17.9133 19.5451 17.9225 19.5466 17.9316C19.548 17.9397 19.5488 17.9477 19.5505 17.9558L19.8891 19.4837C20.3408 21.522 20.3408 22.292 19.8891 24.3303L19.6362 25.4717H15.2358L14.9828 24.3303C14.531 22.292 14.531 21.522 14.9828 19.4837L15.3214 17.9558C15.3231 17.9478 15.3239 17.9397 15.3253 17.9316C15.3269 17.9225 15.3288 17.9133 15.3298 17.9041C15.3309 17.8948 15.331 17.8857 15.3315 17.8765C15.332 17.8673 15.3329 17.8582 15.3329 17.849C15.3329 17.8398 15.332 17.8307 15.3315 17.8215C15.331 17.8124 15.3308 17.8031 15.3298 17.794C15.3288 17.7848 15.3269 17.7756 15.3253 17.7664C15.3239 17.7584 15.3231 17.7503 15.3214 17.7423L14.9828 16.2144C14.5311 14.1761 14.5311 13.406 14.9828 11.3677L15.3214 9.83979C15.3231 9.8318 15.3239 9.82374 15.3253 9.81568C15.3269 9.80649 15.3288 9.79739 15.3298 9.78812C15.3309 9.77884 15.331 9.76974 15.3315 9.76054C15.332 9.75135 15.3329 9.74226 15.3329 9.73306C15.3329 9.72385 15.332 9.71473 15.3315 9.70557C15.331 9.69641 15.3308 9.68719 15.3298 9.678C15.3288 9.66881 15.3269 9.65961 15.3253 9.65043C15.3239 9.64241 15.3231 9.63434 15.3214 9.62632L14.9828 8.09842C14.531 6.06011 14.531 5.29009 14.9828 3.25179L15.3214 1.72388C15.3374 1.6518 15.3369 1.57706 15.3202 1.50516C15.3034 1.43327 15.2707 1.36605 15.2245 1.30848C15.1783 1.25091 15.1197 1.20444 15.0532 1.17252C14.9866 1.14059 14.9137 1.12402 14.8399 1.12402H8.70279C8.62896 1.12402 8.55608 1.14059 8.48951 1.17252C8.42295 1.20445 8.3644 1.25091 8.31819 1.30848C8.27197 1.36606 8.23928 1.43327 8.22251 1.50516C8.20574 1.57706 8.20533 1.6518 8.2213 1.72388L8.55986 3.25179C9.0116 5.29009 9.0116 6.06011 8.55986 8.09842L8.54095 8.18377C7.94088 7.28021 7.12871 6.53732 6.17538 6.01997C4.68739 5.19676 3.01853 4.9528 1.5969 5.35042C1.53394 5.36803 1.4751 5.39798 1.42382 5.43853C1.37253 5.47909 1.32982 5.52943 1.29818 5.58664C1.26653 5.64386 1.24658 5.70679 1.23949 5.77179C1.23239 5.83678 1.23829 5.90254 1.25684 5.96523C1.67557 7.38087 2.76912 8.66476 4.2571 9.48783C5.22706 10.0359 6.31962 10.3305 7.43365 10.3441C7.72948 10.3436 8.02476 10.3186 8.31648 10.2695L8.55984 11.3677C9.01153 13.406 9.01153 14.1761 8.55984 16.2144L8.22128 17.7423C8.21951 17.7502 8.21872 17.7583 8.21735 17.7664C8.21579 17.7756 8.2139 17.7847 8.21286 17.7939C8.21182 17.8032 8.21164 17.8123 8.21113 17.8215C8.21061 17.8307 8.20979 17.8398 8.20979 17.849C8.20979 17.8582 8.21061 17.8673 8.21113 17.8765C8.21164 17.8856 8.21183 17.8949 8.21286 17.904C8.21389 17.9132 8.21579 17.9224 8.21735 17.9316C8.21872 17.9396 8.21955 17.9477 8.22128 17.9557L8.55984 19.4836C9.01158 21.5219 9.01158 22.292 8.55984 24.3303L8.25556 25.7034C5.69404 27.5111 4.28664 29.9045 4.28664 32.467C4.28664 35.1415 5.81172 37.6227 8.58087 39.4537C8.7767 39.5808 8.91841 39.776 8.97853 40.0015C9.03864 40.2271 9.0129 40.4669 8.90628 40.6746L8.00267 42.4126C7.9636 42.4877 7.94454 42.5717 7.94735 42.6564C7.95015 42.7411 7.97473 42.8236 8.0187 42.896C8.06267 42.9684 8.12456 43.0283 8.19839 43.0698C8.27222 43.1114 8.35552 43.1332 8.44024 43.1332H26.5122C26.597 43.1332 26.6803 43.1114 26.7541 43.0698C26.8279 43.0283 26.8898 42.9684 26.9338 42.896C26.9778 42.8236 27.0023 42.7411 27.0051 42.6564C27.0079 42.5717 26.9889 42.4877 26.9498 42.4126L26.0463 40.6746C25.9396 40.4669 25.9139 40.2271 25.974 40.0015C26.0341 39.776 26.1758 39.5808 26.3717 39.4537C29.1408 37.6227 30.6658 35.1414 30.6658 32.467C30.6658 29.873 29.2233 27.4526 26.6017 25.6374L26.3121 24.3302C25.8603 22.2919 25.8603 21.5218 26.3121 19.4836L26.5228 18.5325C26.7873 18.5725 27.0545 18.5927 27.322 18.5931C28.436 18.5794 29.5285 18.2849 30.4984 17.7368C31.9864 16.9137 33.08 15.6298 33.4987 14.2142C33.5173 14.1515 33.5231 14.0857 33.516 14.0207C33.5089 13.9557 33.489 13.8928 33.4573 13.8356ZM20.8522 11.1543L20.6465 10.2262H25.5548L25.3491 11.1543C24.8685 13.3228 24.8685 14.2592 25.3491 16.4278L25.5548 17.3558H20.6464L20.8521 16.4278C21.3326 14.2592 21.3327 13.3228 20.8522 11.1543ZM20.8522 19.2702L20.6465 18.3421H25.5548L25.3491 19.2702C24.8685 21.4387 24.8685 22.3751 25.3491 24.5436L25.5548 25.4716H20.6464L20.8521 24.5436C21.3326 22.3751 21.3327 21.4387 20.8522 19.2702ZM9.5229 19.2702L9.31726 18.3421H14.2255L14.0199 19.2702C13.5393 21.4387 13.5393 22.3751 14.0199 24.5436L14.2255 25.4716H9.31721L9.52285 24.5436C10.0034 22.3751 10.0034 21.4387 9.5229 19.2702ZM9.5229 11.1543L9.31726 10.2262H14.2255L14.0199 11.1543C13.5393 13.3228 13.5393 14.2592 14.0199 16.4278L14.2255 17.3558H9.31721L9.52285 16.4278C10.0034 14.2592 10.0034 13.3228 9.5229 11.1543ZM9.5229 3.03844L9.31726 2.11039H14.2255L14.0199 3.03844C13.5393 5.20693 13.5393 6.14337 14.0199 8.31186L14.2255 9.23991H9.31721L9.52285 8.31186C10.0034 6.14337 10.0034 5.20693 9.5229 3.03844ZM4.7346 8.62474C3.65599 8.02814 2.82553 7.15976 2.39045 6.19083C3.44222 6.04398 4.6193 6.28641 5.69799 6.88306C6.7766 7.4796 7.60706 8.34809 8.04214 9.31707C6.99005 9.46353 5.81313 9.22139 4.7346 8.62474ZM29.6795 32.467C29.6795 34.7994 28.3116 36.9885 25.8277 38.631C25.4281 38.8921 25.1398 39.2923 25.0185 39.7539C24.8972 40.2155 24.9516 40.7058 25.1711 41.1296L25.7001 42.1469H9.25251L9.78141 41.1296C10.001 40.7058 10.0554 40.2156 9.93406 39.7539C9.81276 39.2923 9.52441 38.8922 9.12489 38.6311C6.64095 36.9886 5.27298 34.7995 5.27298 32.467C5.27298 30.2114 6.55843 28.0823 8.89682 26.458H26.0557C28.3941 28.0823 29.6795 30.2114 29.6795 32.467ZM30.021 16.8738C28.9423 17.4704 27.7654 17.7128 26.7135 17.566C27.1484 16.5971 27.9789 15.7287 29.0576 15.132C30.1363 14.5354 31.3131 14.2931 32.3651 14.4398C31.9301 15.4087 31.0996 16.2771 30.021 16.8738Z" stroke="#285A43" stroke-width="0.890645" mask="url(#path-1-outside-1_503_36)"/>
<path d="M23.3722 39.0523H11.5804C11.3906 39.0523 11.2085 39.1277 11.0743 39.262C10.94 39.3962 10.8646 39.5783 10.8646 39.7681C10.8646 39.958 10.94 40.14 11.0743 40.2743C11.2085 40.4085 11.3906 40.4839 11.5804 40.4839H23.3722C23.562 40.4839 23.7441 40.4085 23.8783 40.2743C24.0126 40.14 24.088 39.958 24.088 39.7681C24.088 39.5783 24.0126 39.3962 23.8783 39.262C23.7441 39.1277 23.562 39.0523 23.3722 39.0523Z" fill="#285A43" stroke="#285A43" stroke-width="0.445322"/>
</svg>
