<svg width="27" height="46" viewBox="0 0 27 46" fill="none" xmlns="http://www.w3.org/2000/svg">
<path d="M20.6625 30.9824V30.9826C20.6601 32.835 19.9562 34.6178 18.6925 35.9722C17.4761 37.2759 15.8279 38.0897 14.0582 38.2653V41.7498C16.2548 41.8707 18.384 42.5583 20.2378 43.7473L20.2379 43.7474C20.317 43.7982 20.3853 43.8641 20.4389 43.9413C20.4926 44.0185 20.5305 44.1055 20.5505 44.1974C20.5705 44.2892 20.5722 44.3841 20.5555 44.4766C20.5388 44.5692 20.5041 44.6575 20.4533 44.7366C20.4025 44.8157 20.3366 44.884 20.2594 44.9376C20.1822 44.9912 20.0952 45.0291 20.0033 45.0491C19.9115 45.0691 19.8166 45.0708 19.7241 45.0542C19.6316 45.0375 19.5434 45.0028 19.4643 44.952M20.6625 30.9824L19.5845 44.7646M20.6625 30.9824C20.6625 30.7925 20.5871 30.6104 20.4528 30.4762C20.3186 30.342 20.1365 30.2665 19.9467 30.2665L19.9464 30.2665C18.4763 30.2684 17.0407 30.7122 15.826 31.5404C14.7548 32.2709 13.899 33.2706 13.3424 34.4348M20.6625 30.9824L13.3424 34.4348M19.4643 44.952C19.4643 44.952 19.4642 44.952 19.4642 44.952L19.5845 44.7646M19.4643 44.952C19.4644 44.9521 19.4644 44.9521 19.4644 44.9521L19.5845 44.7646M19.4643 44.952C17.6368 43.7822 15.5123 43.1605 13.3424 43.1605C11.1725 43.1605 9.04794 43.7822 7.22037 44.9521M19.5845 44.7646C17.7211 43.5718 15.5549 42.9378 13.3424 42.9378C11.1299 42.9378 8.96373 43.5718 7.10032 44.7646M7.22037 44.9521C7.22047 44.9521 7.22056 44.952 7.22066 44.952L7.10032 44.7646M7.22037 44.9521C7.06069 45.0546 6.86687 45.0895 6.68148 45.0491C6.49597 45.0087 6.33412 44.8963 6.23151 44.7366C6.1289 44.5768 6.09395 44.3829 6.13434 44.1974C6.17473 44.0119 6.28716 43.85 6.44689 43.7474L6.44702 43.7473C8.30079 42.5583 10.43 41.8707 12.6266 41.7498M7.22037 44.9521L7.10032 44.7646M7.10032 44.7646L12.6266 41.7498M12.6266 41.7498V41.9624H12.8492M12.6266 41.7498L6.56724 43.9348C8.44775 42.7286 10.6168 42.0475 12.8492 41.9624M12.6266 41.7498V38.2653C10.8569 38.0897 9.20871 37.2759 7.99231 35.9722C6.72861 34.6178 6.02475 32.835 6.02233 30.9826L6.02233 30.9824C6.02233 30.7925 6.09775 30.6104 6.23199 30.4762C6.36623 30.342 6.54831 30.2665 6.73815 30.2665H6.73843C8.20854 30.2684 9.64414 30.7122 10.8588 31.5404C11.93 32.2709 12.7858 33.2706 13.3424 34.4348M12.6266 41.7498C12.6979 41.7459 12.7693 41.7426 12.8408 41.7399L12.8492 41.9624M12.8492 41.9624V38.0607C11.0576 37.9341 9.38041 37.1336 8.15511 35.8203C6.92981 34.5071 6.24733 32.7785 6.245 30.9824L13.3424 34.4348M15.785 33.425C16.7036 32.5064 17.8978 31.9185 19.1807 31.7484C19.0105 33.0312 18.4226 34.2254 17.504 35.144C16.5854 36.0626 15.3912 36.6505 14.1084 36.8206C14.2786 35.5378 14.8664 34.3436 15.785 33.425ZM9.18079 35.144C8.26219 34.2254 7.67431 33.0312 7.50416 31.7484C8.787 31.9185 9.98118 32.5064 10.8998 33.425C11.8184 34.3436 12.4062 35.5378 12.5764 36.8206C11.2936 36.6505 10.0994 36.0626 9.18079 35.144Z" fill="white" stroke="white" stroke-width="0.445322"/>
<path d="M13.3422 21.4363H13.3425C14.8266 21.4363 16.2773 20.9962 17.5113 20.1717C18.7453 19.3471 19.707 18.1752 20.275 16.8041C20.8429 15.433 20.9915 13.9242 20.7019 12.4687C20.4124 11.0131 19.6978 9.67608 18.6483 8.62667C17.5989 7.57726 16.2619 6.86261 14.8063 6.57307C13.3508 6.28354 11.842 6.43214 10.4709 7.00007C9.09978 7.56801 7.92787 8.52977 7.10335 9.76374C6.27883 10.9977 5.83874 12.4485 5.83874 13.9326L5.83874 13.9328C5.84099 15.9222 6.63226 17.8294 8.03895 19.2361C9.44563 20.6428 11.3529 21.434 13.3422 21.4363ZM13.3426 7.86059C14.5435 7.86062 15.7174 8.21675 16.7159 8.88393C17.7145 9.55114 18.4927 10.4995 18.9523 11.609C19.4119 12.7185 19.5321 13.9394 19.2978 15.1173C19.0635 16.2951 18.4852 17.3771 17.636 18.2262C16.7868 19.0754 15.7049 19.6537 14.527 19.888C13.3491 20.1223 12.1283 20.0021 11.0187 19.5425C9.90922 19.0829 8.9609 18.3046 8.2937 17.3061C7.62652 16.3076 7.27041 15.1337 7.27038 13.9328C7.27223 12.3229 7.91258 10.7795 9.05095 9.64111C10.1893 8.50276 11.7327 7.86243 13.3426 7.86059Z" fill="white" stroke="white" stroke-width="0.445322"/>
<path d="M19.268 20.8705L19.268 20.8705L20.3953 21.9978C20.4618 22.0643 20.5407 22.117 20.6276 22.153C20.7144 22.189 20.8075 22.2075 20.9015 22.2075C20.9955 22.2075 21.0886 22.189 21.1755 22.153C21.2623 22.117 21.3412 22.0643 21.4077 21.9978C21.4742 21.9313 21.5269 21.8524 21.5629 21.7656C21.5988 21.6787 21.6174 21.5856 21.6174 21.4916C21.6174 21.3976 21.5988 21.3045 21.5629 21.2177C21.5269 21.1308 21.4742 21.0519 21.4077 20.9855L21.4077 20.9855L20.2804 19.8582C20.2804 19.8582 20.2804 19.8582 20.2804 19.8582C20.2139 19.7917 20.135 19.739 20.0481 19.703C19.9613 19.667 19.8682 19.6485 19.7742 19.6485C19.6802 19.6485 19.5871 19.667 19.5003 19.703C19.4134 19.739 19.3345 19.7917 19.268 19.8582C19.2015 19.9247 19.1488 20.0036 19.1128 20.0904C19.0769 20.1773 19.0583 20.2704 19.0583 20.3644C19.0583 20.4584 19.0769 20.5514 19.1128 20.6383C19.1488 20.7252 19.2015 20.8041 19.268 20.8705Z" fill="white" stroke="white" stroke-width="0.445322"/>
<path d="M7.41685 6.99461L7.41685 6.99461L6.28952 5.86731C6.28952 5.86731 6.28952 5.86731 6.28952 5.86731C6.15527 5.73306 5.97319 5.65765 5.78334 5.65765C5.59348 5.65765 5.41141 5.73307 5.27716 5.86732C5.14292 6.00157 5.0675 6.18364 5.0675 6.3735C5.0675 6.56335 5.14292 6.74543 5.27717 6.87967L5.27717 6.87967L6.40449 8.00696C6.40449 8.00696 6.40449 8.00696 6.40449 8.00696C6.47096 8.07343 6.54987 8.12616 6.63672 8.16213C6.72357 8.19811 6.81666 8.21663 6.91066 8.21663C7.00467 8.21663 7.09775 8.19811 7.1846 8.16214C7.27145 8.12617 7.35037 8.07344 7.41684 8.00697C7.48331 7.9405 7.53604 7.86158 7.57202 7.77473C7.608 7.68788 7.62651 7.59479 7.62651 7.50079C7.62651 7.40678 7.608 7.3137 7.57202 7.22685C7.53605 7.14 7.48332 7.06108 7.41685 6.99461Z" fill="white" stroke="white" stroke-width="0.445322"/>
<path d="M20.3953 5.86731L20.3953 5.86731L19.268 6.99464L19.268 6.99464C19.1338 7.12889 19.0583 7.31097 19.0583 7.50082C19.0583 7.69067 19.1338 7.87275 19.268 8.007C19.4023 8.14124 19.5843 8.21666 19.7742 8.21666C19.964 8.21666 20.1461 8.14124 20.2804 8.00699L21.4077 6.87967C21.5419 6.74543 21.6174 6.56335 21.6174 6.3735C21.6174 6.18364 21.5419 6.00157 21.4077 5.86732C21.2734 5.73307 21.0914 5.65765 20.9015 5.65765C20.7117 5.65765 20.5296 5.73306 20.3953 5.86731Z" fill="white" stroke="white" stroke-width="0.445322"/>
<path d="M7.41684 19.8582L7.41681 19.8582C7.28255 19.724 7.1005 19.6486 6.91067 19.6486C6.72084 19.6486 6.53878 19.724 6.40452 19.8582L6.40449 19.8582L5.27717 20.9855L5.27717 20.9855C5.14292 21.1197 5.0675 21.3018 5.0675 21.4916C5.0675 21.6815 5.14292 21.8636 5.27716 21.9978C5.41141 22.1321 5.59348 22.2075 5.78334 22.2075C5.97319 22.2075 6.15527 22.1321 6.28951 21.9978C6.28951 21.9978 6.28952 21.9978 6.28952 21.9978L7.41684 20.8706C7.48332 20.8041 7.53605 20.7252 7.57203 20.6383C7.608 20.5515 7.62652 20.4584 7.62652 20.3644C7.62652 20.2704 7.608 20.1773 7.57203 20.0904C7.53605 20.0036 7.48332 19.9247 7.41684 19.8582Z" fill="white" stroke="white" stroke-width="0.445322"/>
<path d="M25.3675 13.2167H22.4384C22.2485 13.2167 22.0664 13.2921 21.9322 13.4264C21.7979 13.5606 21.7225 13.7427 21.7225 13.9326C21.7225 14.1224 21.7979 14.3045 21.9322 14.4387C22.0664 14.573 22.2485 14.6484 22.4384 14.6484H25.3675C25.5574 14.6484 25.7394 14.573 25.8737 14.4387C26.0079 14.3045 26.0833 14.1224 26.0833 13.9326C26.0833 13.7427 26.0079 13.5606 25.8737 13.4264C25.7394 13.2921 25.5574 13.2167 25.3675 13.2167Z" fill="white" stroke="white" stroke-width="0.445322"/>
<path d="M4.24642 13.2167H1.31726C1.12741 13.2167 0.945336 13.2921 0.811093 13.4264C0.67685 13.5606 0.601435 13.7427 0.601435 13.9326C0.601435 14.1224 0.67685 14.3045 0.811093 14.4387C0.945337 14.573 1.12741 14.6484 1.31726 14.6484H4.24642C4.43626 14.6484 4.61834 14.573 4.75258 14.4387C4.88682 14.3045 4.96224 14.1224 4.96224 13.9326C4.96224 13.7427 4.88682 13.5606 4.75258 13.4264C4.61834 13.2921 4.43627 13.2167 4.24642 13.2167Z" fill="white" stroke="white" stroke-width="0.445322"/>
<path d="M12.6266 23.0285V25.9576C12.6266 26.1475 12.702 26.3296 12.8362 26.4638C12.9705 26.5981 13.1526 26.6735 13.3424 26.6735C13.5323 26.6735 13.7143 26.5981 13.8486 26.4638C13.9828 26.3296 14.0582 26.1475 14.0582 25.9576V23.0285C14.0582 22.8387 13.9828 22.6566 13.8486 22.5223C13.7143 22.3881 13.5323 22.3127 13.3424 22.3127C13.1526 22.3127 12.9705 22.3881 12.8362 22.5223C12.702 22.6566 12.6266 22.8387 12.6266 23.0285Z" fill="white" stroke="white" stroke-width="0.445322"/>
<path d="M13.3424 5.55242C13.5323 5.55242 13.7143 5.477 13.8486 5.34276C13.9828 5.20852 14.0582 5.02645 14.0582 4.8366V1.90741C14.0582 1.71756 13.9828 1.53549 13.8486 1.40124C13.7143 1.267 13.5323 1.19158 13.3424 1.19158C13.1526 1.19158 12.9705 1.267 12.8362 1.40124C12.702 1.53549 12.6266 1.71756 12.6266 1.90741V4.83653C12.6266 4.83654 12.6266 4.83655 12.6266 4.83655C12.6266 4.93056 12.6451 5.02364 12.6811 5.11049C12.717 5.19734 12.7697 5.27626 12.8362 5.34274C12.9027 5.40922 12.9816 5.46195 13.0685 5.49792C13.1553 5.5339 13.2484 5.55242 13.3424 5.55242Z" fill="white" stroke="white" stroke-width="0.445322"/>
</svg>
