<svg width="89" height="78" viewBox="0 0 89 78" fill="none" xmlns="http://www.w3.org/2000/svg">
<g clip-path="url(#clip0_503_252)">
<g opacity="0.05">
<mask id="path-1-inside-1_503_252" fill="white">
<path d="M84.6081 30.4408C84.5325 30.3041 84.4305 30.1838 84.308 30.087C84.1855 29.9901 84.045 29.9186 83.8945 29.8766C80.4984 28.9265 76.5118 29.5095 72.9571 31.4762C70.8212 32.6379 68.978 34.2708 67.5672 36.251L67.5389 36.1234C66.4597 31.2541 66.4597 29.4145 67.5389 24.5452L68.3477 20.8952C68.3858 20.723 68.3849 20.5445 68.3448 20.3727C68.3047 20.201 68.2266 20.0404 68.1162 19.9029C68.0058 19.7653 67.866 19.6543 67.707 19.5781C67.5479 19.5018 67.3738 19.4622 67.1975 19.4622H52.5366C52.3603 19.4622 52.1861 19.5018 52.0271 19.5781C51.8681 19.6543 51.7282 19.7653 51.6178 19.9029C51.5074 20.0404 51.4293 20.201 51.3893 20.3727C51.3492 20.5445 51.3482 20.723 51.3864 20.8952L52.1952 24.5452C53.2742 29.4145 53.2742 31.2541 52.1952 36.1234L51.3864 39.7734C51.3822 39.7925 51.3803 39.8117 51.377 39.831C51.3733 39.8529 51.3688 39.8747 51.3663 39.8969C51.3638 39.919 51.3634 39.9407 51.3622 39.9627C51.361 39.9847 51.3589 40.0064 51.3589 40.0284C51.3589 40.0503 51.3609 40.0721 51.3622 40.094C51.3634 40.1159 51.3638 40.1379 51.3663 40.1599C51.3687 40.1818 51.3733 40.2038 51.377 40.2257C51.3803 40.2449 51.3822 40.2642 51.3864 40.2833L52.1952 43.9333C53.2743 48.8026 53.2743 50.6421 52.1952 55.5114L51.5909 58.2382H41.0788L40.4746 55.5114C39.3953 50.6421 39.3953 48.8026 40.4746 43.9333L41.2834 40.2833C41.2876 40.2643 41.2895 40.245 41.2927 40.2257C41.2965 40.2038 41.301 40.182 41.3035 40.1599C41.306 40.1377 41.3064 40.116 41.3076 40.094C41.3088 40.072 41.3108 40.0503 41.3108 40.0284C41.3108 40.0064 41.3088 39.9846 41.3076 39.9627C41.3064 39.9408 41.306 39.9188 41.3035 39.8969C41.301 39.8749 41.2965 39.8529 41.2927 39.831C41.2895 39.8118 41.2875 39.7925 41.2834 39.7734L40.4746 36.1234C39.3954 31.2541 39.3954 29.4145 40.4746 24.5452L41.2834 20.8952C41.2876 20.8761 41.2895 20.8569 41.2927 20.8376C41.2965 20.8157 41.301 20.7939 41.3035 20.7718C41.306 20.7496 41.3064 20.7279 41.3076 20.7059C41.3088 20.6839 41.3108 20.6622 41.3108 20.6402C41.3108 20.6183 41.3088 20.5965 41.3076 20.5746C41.3064 20.5527 41.306 20.5307 41.3035 20.5087C41.301 20.4868 41.2965 20.4648 41.2927 20.4429C41.2895 20.4237 41.2875 20.4044 41.2834 20.3853L40.4746 16.7353C39.3953 11.866 39.3953 10.0265 40.4746 5.15721L41.2834 1.50721C41.3216 1.33502 41.3206 1.15647 41.2805 0.984717C41.2404 0.812964 41.1623 0.652397 41.0519 0.514861C40.9415 0.377325 40.8017 0.26633 40.6427 0.190065C40.4836 0.1138 40.3095 0.0742115 40.1332 0.0742188H25.4723C25.2959 0.0742155 25.1218 0.113806 24.9628 0.190073C24.8038 0.26634 24.6639 0.377336 24.5535 0.514871C24.4431 0.652406 24.365 0.812972 24.325 0.984723C24.2849 1.15647 24.2839 1.33503 24.3221 1.50721L25.1309 5.15721C26.21 10.0265 26.21 11.866 25.1309 16.7353L25.0857 16.9392C23.6522 14.7807 21.712 13.006 19.4346 11.7701C15.88 9.80352 11.8932 9.22073 8.49714 10.1706C8.34672 10.2127 8.20617 10.2842 8.08366 10.3811C7.96114 10.478 7.85912 10.5983 7.78352 10.7349C7.70793 10.8716 7.66027 11.0219 7.64331 11.1772C7.62636 11.3325 7.64045 11.4896 7.68477 11.6393C8.68506 15.0211 11.2974 18.0882 14.8521 20.0544C17.1692 21.3638 19.7792 22.0674 22.4405 22.1C23.1472 22.0987 23.8526 22.039 24.5495 21.9216L25.1308 24.5452C26.2099 29.4144 26.2099 31.2541 25.1308 36.1233L24.322 39.7733C24.3178 39.7924 24.3159 39.8117 24.3127 39.8309C24.3089 39.8529 24.3044 39.8746 24.3019 39.8968C24.2994 39.9189 24.299 39.9407 24.2978 39.9626C24.2966 39.9846 24.2946 40.0063 24.2946 40.0283C24.2946 40.0503 24.2966 40.0721 24.2978 40.094C24.299 40.1158 24.2995 40.1379 24.3019 40.1598C24.3044 40.1818 24.3089 40.2038 24.3127 40.2257C24.3159 40.2449 24.3179 40.2641 24.322 40.2833L25.1308 43.9333C26.21 48.8026 26.21 50.6421 25.1308 55.5113L24.4039 58.7917C18.2847 63.11 14.9226 68.8275 14.9226 74.9492C14.9226 81.3381 18.5659 87.2656 25.1811 91.6396C25.6489 91.9431 25.9874 92.4094 26.131 92.9483C26.2746 93.4871 26.2131 94.06 25.9584 94.5561L23.7998 98.708C23.7065 98.8876 23.6609 99.0882 23.6676 99.2904C23.6744 99.4927 23.7331 99.6898 23.8381 99.8628C23.9431 100.036 24.091 100.179 24.2674 100.278C24.4437 100.377 24.6427 100.43 24.8451 100.43H68.0171C68.2195 100.43 68.4185 100.377 68.5949 100.278C68.7712 100.179 68.9191 100.036 69.0241 99.8628C69.1292 99.6898 69.1879 99.4927 69.1946 99.2904C69.2013 99.0882 69.1558 98.8876 69.0624 98.708L66.904 94.5561C66.6492 94.0601 66.5877 93.4871 66.7313 92.9483C66.8749 92.4094 67.2134 91.9431 67.6813 91.6396C74.2965 87.2655 77.9396 81.3379 77.9396 74.9491C77.9396 68.7522 74.4935 62.9701 68.2308 58.6338L67.5389 55.5111C66.4596 50.6418 66.4596 48.8023 67.5389 43.9331L68.0423 41.6611C68.6742 41.7566 69.3124 41.805 69.9515 41.806C72.6126 41.7731 75.2225 41.0695 77.5396 39.7604C81.0944 37.794 83.7068 34.7268 84.707 31.3452C84.7513 31.1954 84.7654 31.0383 84.7484 30.883C84.7314 30.7278 84.6837 30.5774 84.6081 30.4408ZM54.4958 24.0354L54.0045 21.8184H65.7298L65.2386 24.0354C64.0905 29.2158 64.0905 31.4527 65.2386 36.6332L65.7298 38.8502H54.0044L54.4957 36.6332C55.6436 31.4527 55.6437 29.2158 54.4958 24.0354ZM54.4958 43.4233L54.0045 41.2063H65.7298L65.2386 43.4233C64.0905 48.6036 64.0905 50.8407 65.2386 56.021L65.7298 58.238H54.0044L54.4957 56.021C55.6436 50.8407 55.6437 48.6036 54.4958 43.4233ZM27.4315 43.4233L26.9402 41.2063H38.6655L38.1743 43.4233C37.0262 48.6036 37.0262 50.8407 38.1743 56.021L38.6655 58.238H26.9401L27.4313 56.021C28.5793 50.8407 28.5794 48.6036 27.4315 43.4233ZM27.4315 24.0354L26.9402 21.8184H38.6655L38.1743 24.0354C37.0262 29.2158 37.0262 31.4527 38.1743 36.6332L38.6655 38.8502H26.9401L27.4313 36.6332C28.5793 31.4527 28.5794 29.2158 27.4315 24.0354ZM27.4315 4.64754L26.9402 2.43053H38.6655L38.1743 4.64754C37.0262 9.82782 37.0262 12.0649 38.1743 17.2452L38.6655 19.4622H26.9401L27.4313 17.2452C28.5793 12.0649 28.5794 9.82782 27.4315 4.64754ZM15.9928 17.9926C13.4161 16.5674 11.4322 14.4929 10.3928 12.1783C12.9054 11.8275 15.7173 12.4066 18.2942 13.8319C20.8709 15.257 22.8547 17.3317 23.8941 19.6465C21.3808 19.9964 18.5692 19.4179 15.9928 17.9926ZM75.5834 74.9491C75.5834 80.5211 72.3155 85.7506 66.3818 89.6743C65.4273 90.2981 64.7385 91.254 64.4487 92.3568C64.1589 93.4595 64.2889 94.6306 64.8134 95.643L66.0769 98.0734H26.7855L28.049 95.643C28.5735 94.6306 28.7034 93.4595 28.4137 92.3568C28.1239 91.2541 27.4351 90.2982 26.4807 89.6744C20.5468 85.7507 17.2789 80.5212 17.2789 74.9492C17.2789 69.5608 20.3497 64.4746 25.9358 60.5943H66.9265C72.5126 64.4745 75.5834 69.5607 75.5834 74.9491ZM76.3991 37.6987C73.8223 39.1239 71.0108 39.703 68.4978 39.3524C69.5369 37.0376 71.5209 34.9631 74.0977 33.5378C76.6745 32.1124 79.4857 31.5336 81.999 31.8841C80.9598 34.1988 78.9758 36.2733 76.3991 37.6987Z"/>
</mask>
<path d="M84.6081 30.4408C84.5325 30.3041 84.4305 30.1838 84.308 30.087C84.1855 29.9901 84.045 29.9186 83.8945 29.8766C80.4984 28.9265 76.5118 29.5095 72.9571 31.4762C70.8212 32.6379 68.978 34.2708 67.5672 36.251L67.5389 36.1234C66.4597 31.2541 66.4597 29.4145 67.5389 24.5452L68.3477 20.8952C68.3858 20.723 68.3849 20.5445 68.3448 20.3727C68.3047 20.201 68.2266 20.0404 68.1162 19.9029C68.0058 19.7653 67.866 19.6543 67.707 19.5781C67.5479 19.5018 67.3738 19.4622 67.1975 19.4622H52.5366C52.3603 19.4622 52.1861 19.5018 52.0271 19.5781C51.8681 19.6543 51.7282 19.7653 51.6178 19.9029C51.5074 20.0404 51.4293 20.201 51.3893 20.3727C51.3492 20.5445 51.3482 20.723 51.3864 20.8952L52.1952 24.5452C53.2742 29.4145 53.2742 31.2541 52.1952 36.1234L51.3864 39.7734C51.3822 39.7925 51.3803 39.8117 51.377 39.831C51.3733 39.8529 51.3688 39.8747 51.3663 39.8969C51.3638 39.919 51.3634 39.9407 51.3622 39.9627C51.361 39.9847 51.3589 40.0064 51.3589 40.0284C51.3589 40.0503 51.3609 40.0721 51.3622 40.094C51.3634 40.1159 51.3638 40.1379 51.3663 40.1599C51.3687 40.1818 51.3733 40.2038 51.377 40.2257C51.3803 40.2449 51.3822 40.2642 51.3864 40.2833L52.1952 43.9333C53.2743 48.8026 53.2743 50.6421 52.1952 55.5114L51.5909 58.2382H41.0788L40.4746 55.5114C39.3953 50.6421 39.3953 48.8026 40.4746 43.9333L41.2834 40.2833C41.2876 40.2643 41.2895 40.245 41.2927 40.2257C41.2965 40.2038 41.301 40.182 41.3035 40.1599C41.306 40.1377 41.3064 40.116 41.3076 40.094C41.3088 40.072 41.3108 40.0503 41.3108 40.0284C41.3108 40.0064 41.3088 39.9846 41.3076 39.9627C41.3064 39.9408 41.306 39.9188 41.3035 39.8969C41.301 39.8749 41.2965 39.8529 41.2927 39.831C41.2895 39.8118 41.2875 39.7925 41.2834 39.7734L40.4746 36.1234C39.3954 31.2541 39.3954 29.4145 40.4746 24.5452L41.2834 20.8952C41.2876 20.8761 41.2895 20.8569 41.2927 20.8376C41.2965 20.8157 41.301 20.7939 41.3035 20.7718C41.306 20.7496 41.3064 20.7279 41.3076 20.7059C41.3088 20.6839 41.3108 20.6622 41.3108 20.6402C41.3108 20.6183 41.3088 20.5965 41.3076 20.5746C41.3064 20.5527 41.306 20.5307 41.3035 20.5087C41.301 20.4868 41.2965 20.4648 41.2927 20.4429C41.2895 20.4237 41.2875 20.4044 41.2834 20.3853L40.4746 16.7353C39.3953 11.866 39.3953 10.0265 40.4746 5.15721L41.2834 1.50721C41.3216 1.33502 41.3206 1.15647 41.2805 0.984717C41.2404 0.812964 41.1623 0.652397 41.0519 0.514861C40.9415 0.377325 40.8017 0.26633 40.6427 0.190065C40.4836 0.1138 40.3095 0.0742115 40.1332 0.0742188H25.4723C25.2959 0.0742155 25.1218 0.113806 24.9628 0.190073C24.8038 0.26634 24.6639 0.377336 24.5535 0.514871C24.4431 0.652406 24.365 0.812972 24.325 0.984723C24.2849 1.15647 24.2839 1.33503 24.3221 1.50721L25.1309 5.15721C26.21 10.0265 26.21 11.866 25.1309 16.7353L25.0857 16.9392C23.6522 14.7807 21.712 13.006 19.4346 11.7701C15.88 9.80352 11.8932 9.22073 8.49714 10.1706C8.34672 10.2127 8.20617 10.2842 8.08366 10.3811C7.96114 10.478 7.85912 10.5983 7.78352 10.7349C7.70793 10.8716 7.66027 11.0219 7.64331 11.1772C7.62636 11.3325 7.64045 11.4896 7.68477 11.6393C8.68506 15.0211 11.2974 18.0882 14.8521 20.0544C17.1692 21.3638 19.7792 22.0674 22.4405 22.1C23.1472 22.0987 23.8526 22.039 24.5495 21.9216L25.1308 24.5452C26.2099 29.4144 26.2099 31.2541 25.1308 36.1233L24.322 39.7733C24.3178 39.7924 24.3159 39.8117 24.3127 39.8309C24.3089 39.8529 24.3044 39.8746 24.3019 39.8968C24.2994 39.9189 24.299 39.9407 24.2978 39.9626C24.2966 39.9846 24.2946 40.0063 24.2946 40.0283C24.2946 40.0503 24.2966 40.0721 24.2978 40.094C24.299 40.1158 24.2995 40.1379 24.3019 40.1598C24.3044 40.1818 24.3089 40.2038 24.3127 40.2257C24.3159 40.2449 24.3179 40.2641 24.322 40.2833L25.1308 43.9333C26.21 48.8026 26.21 50.6421 25.1308 55.5113L24.4039 58.7917C18.2847 63.11 14.9226 68.8275 14.9226 74.9492C14.9226 81.3381 18.5659 87.2656 25.1811 91.6396C25.6489 91.9431 25.9874 92.4094 26.131 92.9483C26.2746 93.4871 26.2131 94.06 25.9584 94.5561L23.7998 98.708C23.7065 98.8876 23.6609 99.0882 23.6676 99.2904C23.6744 99.4927 23.7331 99.6898 23.8381 99.8628C23.9431 100.036 24.091 100.179 24.2674 100.278C24.4437 100.377 24.6427 100.43 24.8451 100.43H68.0171C68.2195 100.43 68.4185 100.377 68.5949 100.278C68.7712 100.179 68.9191 100.036 69.0241 99.8628C69.1292 99.6898 69.1879 99.4927 69.1946 99.2904C69.2013 99.0882 69.1558 98.8876 69.0624 98.708L66.904 94.5561C66.6492 94.0601 66.5877 93.4871 66.7313 92.9483C66.8749 92.4094 67.2134 91.9431 67.6813 91.6396C74.2965 87.2655 77.9396 81.3379 77.9396 74.9491C77.9396 68.7522 74.4935 62.9701 68.2308 58.6338L67.5389 55.5111C66.4596 50.6418 66.4596 48.8023 67.5389 43.9331L68.0423 41.6611C68.6742 41.7566 69.3124 41.805 69.9515 41.806C72.6126 41.7731 75.2225 41.0695 77.5396 39.7604C81.0944 37.794 83.7068 34.7268 84.707 31.3452C84.7513 31.1954 84.7654 31.0383 84.7484 30.883C84.7314 30.7278 84.6837 30.5774 84.6081 30.4408ZM54.4958 24.0354L54.0045 21.8184H65.7298L65.2386 24.0354C64.0905 29.2158 64.0905 31.4527 65.2386 36.6332L65.7298 38.8502H54.0044L54.4957 36.6332C55.6436 31.4527 55.6437 29.2158 54.4958 24.0354ZM54.4958 43.4233L54.0045 41.2063H65.7298L65.2386 43.4233C64.0905 48.6036 64.0905 50.8407 65.2386 56.021L65.7298 58.238H54.0044L54.4957 56.021C55.6436 50.8407 55.6437 48.6036 54.4958 43.4233ZM27.4315 43.4233L26.9402 41.2063H38.6655L38.1743 43.4233C37.0262 48.6036 37.0262 50.8407 38.1743 56.021L38.6655 58.238H26.9401L27.4313 56.021C28.5793 50.8407 28.5794 48.6036 27.4315 43.4233ZM27.4315 24.0354L26.9402 21.8184H38.6655L38.1743 24.0354C37.0262 29.2158 37.0262 31.4527 38.1743 36.6332L38.6655 38.8502H26.9401L27.4313 36.6332C28.5793 31.4527 28.5794 29.2158 27.4315 24.0354ZM27.4315 4.64754L26.9402 2.43053H38.6655L38.1743 4.64754C37.0262 9.82782 37.0262 12.0649 38.1743 17.2452L38.6655 19.4622H26.9401L27.4313 17.2452C28.5793 12.0649 28.5794 9.82782 27.4315 4.64754ZM15.9928 17.9926C13.4161 16.5674 11.4322 14.4929 10.3928 12.1783C12.9054 11.8275 15.7173 12.4066 18.2942 13.8319C20.8709 15.257 22.8547 17.3317 23.8941 19.6465C21.3808 19.9964 18.5692 19.4179 15.9928 17.9926ZM75.5834 74.9491C75.5834 80.5211 72.3155 85.7506 66.3818 89.6743C65.4273 90.2981 64.7385 91.254 64.4487 92.3568C64.1589 93.4595 64.2889 94.6306 64.8134 95.643L66.0769 98.0734H26.7855L28.049 95.643C28.5735 94.6306 28.7034 93.4595 28.4137 92.3568C28.1239 91.2541 27.4351 90.2982 26.4807 89.6744C20.5468 85.7507 17.2789 80.5212 17.2789 74.9492C17.2789 69.5608 20.3497 64.4746 25.9358 60.5943H66.9265C72.5126 64.4745 75.5834 69.5607 75.5834 74.9491ZM76.3991 37.6987C73.8223 39.1239 71.0108 39.703 68.4978 39.3524C69.5369 37.0376 71.5209 34.9631 74.0977 33.5378C76.6745 32.1124 79.4857 31.5336 81.999 31.8841C80.9598 34.1988 78.9758 36.2733 76.3991 37.6987Z" fill="#121212" stroke="#F8F8F8" stroke-width="1.33597" mask="url(#path-1-inside-1_503_252)"/>
</g>
</g>
<defs>
<clipPath id="clip0_503_252">
<rect width="88.1738" height="77.4861" fill="white" transform="translate(0.10498 0.0742798)"/>
</clipPath>
</defs>
</svg>
