<svg width="116" height="102" viewBox="0 0 116 102" fill="none" xmlns="http://www.w3.org/2000/svg">
<g opacity="0.05" clip-path="url(#clip0_503_234)">
<mask id="path-1-inside-1_503_234" fill="white">
<path d="M93.6388 30.3425C96.7213 30.3247 99.7441 29.4916 102.4 27.9278C104.406 26.7926 106.157 25.2581 107.547 23.4192C108.936 21.5803 109.933 19.4761 110.477 17.2366C110.588 16.7423 110.508 16.2241 110.253 15.7863C109.998 15.3485 109.587 15.0236 109.102 14.8769C106.885 14.2459 104.563 14.0761 102.278 14.378C99.9935 14.68 97.7949 15.4473 95.8185 16.6326C94.08 17.6429 92.5251 18.9402 91.2198 20.4696C90.8381 18.4955 90.125 16.6003 89.1106 14.8643C87.9754 12.8587 86.4409 11.1072 84.602 9.71802C82.7631 8.32886 80.6589 7.33159 78.4194 6.78782C77.9251 6.67629 77.4069 6.7561 76.9691 7.01121C76.5313 7.26632 76.2064 7.67778 76.0597 8.16279C75.4288 10.3793 75.259 12.7017 75.5611 14.9864C75.8631 17.2712 76.6304 19.4697 77.8156 21.4461C79.7744 24.8697 82.8545 27.5127 86.5359 28.9288C85.8848 32.4594 84.8784 38.6713 84.043 47.0997C83.3225 45.7869 82.4702 44.5509 81.4993 43.4107C77.696 38.9455 72.3736 36.2459 66.8971 36.0039C66.391 35.9819 65.8953 36.1522 65.5096 36.4807C65.1239 36.8092 64.8769 37.2716 64.8182 37.7748C64.1858 43.2204 66.0043 48.9041 69.8076 53.3691C73.1468 57.37 77.8668 59.9709 83.0328 60.6569C82.7947 65.313 82.6402 70.4598 82.6316 76.0185C81.8668 74.9033 81.0011 73.8607 80.0457 72.9037C75.8984 68.7564 70.3806 66.4944 64.8991 66.6859C64.3927 66.704 63.9119 66.9133 63.5536 67.2716C63.1953 67.6299 62.986 68.1106 62.9679 68.617C62.772 74.0953 65.0385 79.6161 69.1859 83.7637C72.8262 87.4781 77.7263 89.6936 82.9197 89.9731C83.0859 93.859 83.3353 97.8751 83.6678 102.021H32.9328C33.2717 97.8799 33.5211 93.8638 33.681 89.9731C38.8743 89.6933 43.7743 87.4779 47.4147 83.7637C51.5622 79.6161 53.8286 74.0953 53.6327 68.617C53.6146 68.1106 53.4054 67.6299 53.0471 67.2716C52.6887 66.9133 52.208 66.704 51.7016 66.6859C46.2236 66.4937 40.7025 68.7567 36.555 72.9037C35.5995 73.8607 34.7339 74.9033 33.969 76.0185C33.9605 70.4598 33.8059 65.3129 33.5679 60.6569C38.7338 59.971 43.4539 57.3701 46.7932 53.3692C50.5964 48.9043 52.4149 43.2204 51.7826 37.7749C51.7244 37.2715 51.4775 36.8088 51.0917 36.4802C50.7059 36.1516 50.2099 35.9815 49.7036 36.0041C44.2271 36.2461 38.9045 38.9456 35.1015 43.4108C34.1306 44.551 33.2783 45.787 32.5577 47.0999C31.7224 38.6715 30.7159 32.4595 30.0649 28.9289C33.7463 27.5128 36.8263 24.8699 38.7851 21.4463C39.9704 19.4698 40.7377 17.2712 41.0396 14.9865C41.3416 12.7017 41.1718 10.3793 40.5408 8.16279C40.3943 7.6777 40.0694 7.26616 39.6315 7.01102C39.1937 6.75587 38.6755 6.67607 38.1812 6.78768C35.9416 7.33145 33.8374 8.32873 31.9985 9.71788C30.1596 11.107 28.6251 12.8586 27.4899 14.8642C26.4755 16.6002 25.7624 18.4954 25.3808 20.4695C24.0754 18.9401 22.5205 17.6427 20.7821 16.6324C18.8056 15.4472 16.607 14.68 14.3223 14.378C12.0376 14.076 9.71523 14.2458 7.49871 14.8768C7.01371 15.0235 6.60226 15.3484 6.34717 15.7862C6.09208 16.224 6.01227 16.7422 6.12382 17.2365C6.66756 19.476 7.66479 21.5802 9.05389 23.4191C10.443 25.258 12.1944 26.7925 14.2 27.9278C16.8563 29.4917 19.879 30.3248 22.9614 30.3425C24.044 30.3416 25.1236 30.2296 26.1832 30.0081C26.8076 33.4522 27.7415 39.2904 28.5218 47.0167C27.6797 45.9825 26.7457 45.0267 25.7312 44.161C21.266 40.3579 15.5838 38.5397 10.1367 39.1716C9.63332 39.23 9.17078 39.4769 8.8422 39.8626C8.51362 40.2484 8.34339 40.7443 8.3658 41.2505C8.60805 46.7273 11.3078 52.0494 15.7728 55.8526C19.5101 59.0951 24.2765 60.9068 29.224 60.9653C29.3394 60.9653 29.4547 60.9575 29.57 60.9554C29.8067 65.6126 29.9585 70.7686 29.9613 76.3409C29.1436 75.1039 28.2034 73.9523 27.1548 72.9038C23.0077 68.7565 17.4892 66.4945 12.0082 66.686C11.5018 66.7041 11.0211 66.9134 10.6628 67.2717C10.3044 67.63 10.0952 68.1107 10.0771 68.6171C9.88114 74.0952 12.1476 79.6161 16.2951 83.7637C19.8506 87.3878 24.6063 89.5899 29.6699 89.9568C29.5015 93.846 29.2483 97.8675 28.9102 102.022H17.56C17.056 102.022 16.5705 102.211 16.2003 102.553C15.8301 102.895 15.6023 103.364 15.5624 103.867L14.5804 116.217C13.4026 130.758 17.8484 145.196 27.0014 156.556L32.6353 163.57C32.8231 163.804 33.061 163.992 33.3314 164.122C33.6018 164.252 33.8978 164.319 34.1977 164.319H82.4029C82.7028 164.319 82.9988 164.252 83.2692 164.122C83.5396 163.992 83.7774 163.804 83.9652 163.57L89.5992 156.556C98.7522 145.196 103.198 130.758 102.02 116.217L101.038 103.867C100.998 103.365 100.771 102.896 100.4 102.554C100.03 102.212 99.5446 102.022 99.0406 102.022H87.6899C87.3467 97.8835 87.0931 93.862 86.9293 89.9571C91.9933 89.5903 96.7495 87.3882 100.305 83.764C104.453 79.6163 106.719 74.0954 106.523 68.6174C106.505 68.111 106.296 67.6303 105.938 67.272C105.579 66.9137 105.099 66.7044 104.592 66.6863C99.1145 66.4941 93.5931 68.757 89.4457 72.9041C88.3976 73.952 87.4576 75.1029 86.6402 76.3393C86.6453 70.8469 86.7976 65.7014 87.0426 60.956C87.1539 60.958 87.2649 60.9656 87.3763 60.9656C92.3238 60.9069 97.09 59.0953 100.827 55.8529C105.292 52.0496 107.992 46.7275 108.234 41.2508C108.257 40.7446 108.087 40.2486 107.758 39.8629C107.429 39.4771 106.967 39.2302 106.464 39.1718C101.018 38.5391 95.3342 40.3582 90.869 44.1613C89.8637 45.0193 88.9375 45.9658 88.1013 46.9894C88.8813 39.2591 89.8042 33.4418 90.4215 30.0092C91.4797 30.2301 92.5578 30.3417 93.6388 30.3425ZM39.3891 75.738C42.1077 72.9594 45.6995 71.2008 49.5615 70.7573C49.0767 74.6071 47.3243 78.186 44.5806 80.9297C41.8368 83.6733 38.2579 85.4257 34.4081 85.9104C34.852 82.0485 36.6107 78.4568 39.3891 75.738ZM38.1525 46.0097C40.641 43.0232 44.081 40.9835 47.8952 40.2329C47.7191 44.1091 46.2579 47.8164 43.7419 50.7703C41.2258 53.7242 37.7982 55.7566 33.9994 56.5471C34.1334 52.6621 35.5999 48.9415 38.1525 46.0097ZM30.953 16.8822C32.3577 14.4169 34.5187 12.4692 37.1163 11.3274C37.3757 14.1487 36.7484 16.9806 35.322 19.4284C33.8955 21.8763 31.7409 23.8181 29.1584 24.9832C28.8712 22.1602 29.5005 19.3198 30.953 16.8822ZM16.2181 24.4649C13.7528 23.06 11.8052 20.8989 10.6635 18.3012C13.4847 18.0419 16.3166 18.6692 18.7644 20.0956C21.2122 21.5221 23.154 23.6767 24.3191 26.2591C21.4961 26.5469 18.6556 25.9178 16.2181 24.4649ZM18.3718 52.8016C15.3853 50.3131 13.3456 46.8731 12.595 43.0588C16.4712 43.2349 20.1786 44.6961 23.1325 47.2122C26.0864 49.7282 28.1189 53.1559 28.9093 56.9547C25.0242 56.8207 21.3036 55.3543 18.3718 52.8016ZM19.1294 80.9297C16.351 78.2109 14.5923 74.6192 14.1484 70.7573C17.9981 71.242 21.5771 72.9944 24.3208 75.7381C27.0645 78.4818 28.8169 82.0606 29.3017 85.9104C25.4398 85.4667 21.8482 83.7081 19.1294 80.9297ZM86.4746 154.046L81.4425 160.311H35.1583L30.1262 154.046C22.0156 143.98 17.8677 131.293 18.4646 118.38H98.1361C98.733 131.293 94.5852 143.98 86.4746 154.046ZM97.853 114.372H18.7476L19.4109 106.03H30.7482H30.753H30.7554H85.8453H85.8477H85.8525H97.1897L97.853 114.372ZM93.4682 47.2122C96.4 44.6594 100.121 43.1929 104.006 43.0588C103.215 46.8577 101.183 50.2854 98.229 52.8014C95.2751 55.3174 91.5678 56.7787 87.6916 56.9547C88.4421 53.1405 90.4818 49.7006 93.4682 47.2122ZM97.8365 20.0956C100.274 18.6431 103.114 18.0141 105.937 18.3014C104.772 20.8839 102.83 23.0385 100.383 24.4649C97.9347 25.8914 95.1028 26.5185 92.2816 26.259C93.4234 23.6614 95.3712 21.5004 97.8365 20.0956ZM81.2786 19.4285C79.8261 16.9908 79.197 14.1504 79.4843 11.3274C82.0667 12.4926 84.2214 14.4344 85.6478 16.8822C87.0743 19.3301 87.7016 22.1619 87.4422 24.9832C84.8444 23.8415 82.6834 21.8939 81.2786 19.4285ZM72.8588 50.7703C70.3061 47.8385 68.8396 44.1178 68.7054 40.2328C72.5043 41.0231 75.932 43.0555 78.4481 46.0095C80.9641 48.9634 82.4253 52.6708 82.6012 56.5471C78.7871 55.7965 75.3473 53.7567 72.8588 50.7703ZM72.0201 80.9295C69.2418 78.2108 67.483 74.6191 67.0391 70.7573C70.8889 71.242 74.4678 72.9944 77.2115 75.7381C79.9552 78.4818 81.7076 82.0606 82.1925 85.9104C78.3305 85.4667 74.7389 83.708 72.0201 80.9295ZM92.2799 75.7379C94.9985 72.9594 98.5903 71.2008 102.452 70.7573C101.967 74.6071 100.215 78.186 97.4713 80.9297C94.7276 83.6733 91.1487 85.4257 87.2989 85.9104C87.7427 82.0485 89.5015 78.4567 92.2799 75.7379Z"/>
</mask>
<path d="M93.6388 30.3425C96.7213 30.3247 99.7441 29.4916 102.4 27.9278C104.406 26.7926 106.157 25.2581 107.547 23.4192C108.936 21.5803 109.933 19.4761 110.477 17.2366C110.588 16.7423 110.508 16.2241 110.253 15.7863C109.998 15.3485 109.587 15.0236 109.102 14.8769C106.885 14.2459 104.563 14.0761 102.278 14.378C99.9935 14.68 97.7949 15.4473 95.8185 16.6326C94.08 17.6429 92.5251 18.9402 91.2198 20.4696C90.8381 18.4955 90.125 16.6003 89.1106 14.8643C87.9754 12.8587 86.4409 11.1072 84.602 9.71802C82.7631 8.32886 80.6589 7.33159 78.4194 6.78782C77.9251 6.67629 77.4069 6.7561 76.9691 7.01121C76.5313 7.26632 76.2064 7.67778 76.0597 8.16279C75.4288 10.3793 75.259 12.7017 75.5611 14.9864C75.8631 17.2712 76.6304 19.4697 77.8156 21.4461C79.7744 24.8697 82.8545 27.5127 86.5359 28.9288C85.8848 32.4594 84.8784 38.6713 84.043 47.0997C83.3225 45.7869 82.4702 44.5509 81.4993 43.4107C77.696 38.9455 72.3736 36.2459 66.8971 36.0039C66.391 35.9819 65.8953 36.1522 65.5096 36.4807C65.1239 36.8092 64.8769 37.2716 64.8182 37.7748C64.1858 43.2204 66.0043 48.9041 69.8076 53.3691C73.1468 57.37 77.8668 59.9709 83.0328 60.6569C82.7947 65.313 82.6402 70.4598 82.6316 76.0185C81.8668 74.9033 81.0011 73.8607 80.0457 72.9037C75.8984 68.7564 70.3806 66.4944 64.8991 66.6859C64.3927 66.704 63.9119 66.9133 63.5536 67.2716C63.1953 67.6299 62.986 68.1106 62.9679 68.617C62.772 74.0953 65.0385 79.6161 69.1859 83.7637C72.8262 87.4781 77.7263 89.6936 82.9197 89.9731C83.0859 93.859 83.3353 97.8751 83.6678 102.021H32.9328C33.2717 97.8799 33.5211 93.8638 33.681 89.9731C38.8743 89.6933 43.7743 87.4779 47.4147 83.7637C51.5622 79.6161 53.8286 74.0953 53.6327 68.617C53.6146 68.1106 53.4054 67.6299 53.0471 67.2716C52.6887 66.9133 52.208 66.704 51.7016 66.6859C46.2236 66.4937 40.7025 68.7567 36.555 72.9037C35.5995 73.8607 34.7339 74.9033 33.969 76.0185C33.9605 70.4598 33.8059 65.3129 33.5679 60.6569C38.7338 59.971 43.4539 57.3701 46.7932 53.3692C50.5964 48.9043 52.4149 43.2204 51.7826 37.7749C51.7244 37.2715 51.4775 36.8088 51.0917 36.4802C50.7059 36.1516 50.2099 35.9815 49.7036 36.0041C44.2271 36.2461 38.9045 38.9456 35.1015 43.4108C34.1306 44.551 33.2783 45.787 32.5577 47.0999C31.7224 38.6715 30.7159 32.4595 30.0649 28.9289C33.7463 27.5128 36.8263 24.8699 38.7851 21.4463C39.9704 19.4698 40.7377 17.2712 41.0396 14.9865C41.3416 12.7017 41.1718 10.3793 40.5408 8.16279C40.3943 7.6777 40.0694 7.26616 39.6315 7.01102C39.1937 6.75587 38.6755 6.67607 38.1812 6.78768C35.9416 7.33145 33.8374 8.32873 31.9985 9.71788C30.1596 11.107 28.6251 12.8586 27.4899 14.8642C26.4755 16.6002 25.7624 18.4954 25.3808 20.4695C24.0754 18.9401 22.5205 17.6427 20.7821 16.6324C18.8056 15.4472 16.607 14.68 14.3223 14.378C12.0376 14.076 9.71523 14.2458 7.49871 14.8768C7.01371 15.0235 6.60226 15.3484 6.34717 15.7862C6.09208 16.224 6.01227 16.7422 6.12382 17.2365C6.66756 19.476 7.66479 21.5802 9.05389 23.4191C10.443 25.258 12.1944 26.7925 14.2 27.9278C16.8563 29.4917 19.879 30.3248 22.9614 30.3425C24.044 30.3416 25.1236 30.2296 26.1832 30.0081C26.8076 33.4522 27.7415 39.2904 28.5218 47.0167C27.6797 45.9825 26.7457 45.0267 25.7312 44.161C21.266 40.3579 15.5838 38.5397 10.1367 39.1716C9.63332 39.23 9.17078 39.4769 8.8422 39.8626C8.51362 40.2484 8.34339 40.7443 8.3658 41.2505C8.60805 46.7273 11.3078 52.0494 15.7728 55.8526C19.5101 59.0951 24.2765 60.9068 29.224 60.9653C29.3394 60.9653 29.4547 60.9575 29.57 60.9554C29.8067 65.6126 29.9585 70.7686 29.9613 76.3409C29.1436 75.1039 28.2034 73.9523 27.1548 72.9038C23.0077 68.7565 17.4892 66.4945 12.0082 66.686C11.5018 66.7041 11.0211 66.9134 10.6628 67.2717C10.3044 67.63 10.0952 68.1107 10.0771 68.6171C9.88114 74.0952 12.1476 79.6161 16.2951 83.7637C19.8506 87.3878 24.6063 89.5899 29.6699 89.9568C29.5015 93.846 29.2483 97.8675 28.9102 102.022H17.56C17.056 102.022 16.5705 102.211 16.2003 102.553C15.8301 102.895 15.6023 103.364 15.5624 103.867L14.5804 116.217C13.4026 130.758 17.8484 145.196 27.0014 156.556L32.6353 163.57C32.8231 163.804 33.061 163.992 33.3314 164.122C33.6018 164.252 33.8978 164.319 34.1977 164.319H82.4029C82.7028 164.319 82.9988 164.252 83.2692 164.122C83.5396 163.992 83.7774 163.804 83.9652 163.57L89.5992 156.556C98.7522 145.196 103.198 130.758 102.02 116.217L101.038 103.867C100.998 103.365 100.771 102.896 100.4 102.554C100.03 102.212 99.5446 102.022 99.0406 102.022H87.6899C87.3467 97.8835 87.0931 93.862 86.9293 89.9571C91.9933 89.5903 96.7495 87.3882 100.305 83.764C104.453 79.6163 106.719 74.0954 106.523 68.6174C106.505 68.111 106.296 67.6303 105.938 67.272C105.579 66.9137 105.099 66.7044 104.592 66.6863C99.1145 66.4941 93.5931 68.757 89.4457 72.9041C88.3976 73.952 87.4576 75.1029 86.6402 76.3393C86.6453 70.8469 86.7976 65.7014 87.0426 60.956C87.1539 60.958 87.2649 60.9656 87.3763 60.9656C92.3238 60.9069 97.09 59.0953 100.827 55.8529C105.292 52.0496 107.992 46.7275 108.234 41.2508C108.257 40.7446 108.087 40.2486 107.758 39.8629C107.429 39.4771 106.967 39.2302 106.464 39.1718C101.018 38.5391 95.3342 40.3582 90.869 44.1613C89.8637 45.0193 88.9375 45.9658 88.1013 46.9894C88.8813 39.2591 89.8042 33.4418 90.4215 30.0092C91.4797 30.2301 92.5578 30.3417 93.6388 30.3425ZM39.3891 75.738C42.1077 72.9594 45.6995 71.2008 49.5615 70.7573C49.0767 74.6071 47.3243 78.186 44.5806 80.9297C41.8368 83.6733 38.2579 85.4257 34.4081 85.9104C34.852 82.0485 36.6107 78.4568 39.3891 75.738ZM38.1525 46.0097C40.641 43.0232 44.081 40.9835 47.8952 40.2329C47.7191 44.1091 46.2579 47.8164 43.7419 50.7703C41.2258 53.7242 37.7982 55.7566 33.9994 56.5471C34.1334 52.6621 35.5999 48.9415 38.1525 46.0097ZM30.953 16.8822C32.3577 14.4169 34.5187 12.4692 37.1163 11.3274C37.3757 14.1487 36.7484 16.9806 35.322 19.4284C33.8955 21.8763 31.7409 23.8181 29.1584 24.9832C28.8712 22.1602 29.5005 19.3198 30.953 16.8822ZM16.2181 24.4649C13.7528 23.06 11.8052 20.8989 10.6635 18.3012C13.4847 18.0419 16.3166 18.6692 18.7644 20.0956C21.2122 21.5221 23.154 23.6767 24.3191 26.2591C21.4961 26.5469 18.6556 25.9178 16.2181 24.4649ZM18.3718 52.8016C15.3853 50.3131 13.3456 46.8731 12.595 43.0588C16.4712 43.2349 20.1786 44.6961 23.1325 47.2122C26.0864 49.7282 28.1189 53.1559 28.9093 56.9547C25.0242 56.8207 21.3036 55.3543 18.3718 52.8016ZM19.1294 80.9297C16.351 78.2109 14.5923 74.6192 14.1484 70.7573C17.9981 71.242 21.5771 72.9944 24.3208 75.7381C27.0645 78.4818 28.8169 82.0606 29.3017 85.9104C25.4398 85.4667 21.8482 83.7081 19.1294 80.9297ZM86.4746 154.046L81.4425 160.311H35.1583L30.1262 154.046C22.0156 143.98 17.8677 131.293 18.4646 118.38H98.1361C98.733 131.293 94.5852 143.98 86.4746 154.046ZM97.853 114.372H18.7476L19.4109 106.03H30.7482H30.753H30.7554H85.8453H85.8477H85.8525H97.1897L97.853 114.372ZM93.4682 47.2122C96.4 44.6594 100.121 43.1929 104.006 43.0588C103.215 46.8577 101.183 50.2854 98.229 52.8014C95.2751 55.3174 91.5678 56.7787 87.6916 56.9547C88.4421 53.1405 90.4818 49.7006 93.4682 47.2122ZM97.8365 20.0956C100.274 18.6431 103.114 18.0141 105.937 18.3014C104.772 20.8839 102.83 23.0385 100.383 24.4649C97.9347 25.8914 95.1028 26.5185 92.2816 26.259C93.4234 23.6614 95.3712 21.5004 97.8365 20.0956ZM81.2786 19.4285C79.8261 16.9908 79.197 14.1504 79.4843 11.3274C82.0667 12.4926 84.2214 14.4344 85.6478 16.8822C87.0743 19.3301 87.7016 22.1619 87.4422 24.9832C84.8444 23.8415 82.6834 21.8939 81.2786 19.4285ZM72.8588 50.7703C70.3061 47.8385 68.8396 44.1178 68.7054 40.2328C72.5043 41.0231 75.932 43.0555 78.4481 46.0095C80.9641 48.9634 82.4253 52.6708 82.6012 56.5471C78.7871 55.7965 75.3473 53.7567 72.8588 50.7703ZM72.0201 80.9295C69.2418 78.2108 67.483 74.6191 67.0391 70.7573C70.8889 71.242 74.4678 72.9944 77.2115 75.7381C79.9552 78.4818 81.7076 82.0606 82.1925 85.9104C78.3305 85.4667 74.7389 83.708 72.0201 80.9295ZM92.2799 75.7379C94.9985 72.9594 98.5903 71.2008 102.452 70.7573C101.967 74.6071 100.215 78.186 97.4713 80.9297C94.7276 83.6733 91.1487 85.4257 87.2989 85.9104C87.7427 82.0485 89.5015 78.4567 92.2799 75.7379Z" fill="#121212" stroke="#F8F8F8" stroke-width="1.78129" mask="url(#path-1-inside-1_503_234)"/>
</g>
<defs>
<clipPath id="clip0_503_234">
<rect width="114.893" height="101.534" fill="white" transform="translate(0.408386 0.0268555)"/>
</clipPath>
</defs>
</svg>
