<svg width="12" height="11" viewBox="0 0 12 11" fill="none" xmlns="http://www.w3.org/2000/svg">
<path d="M4.55037 4.30532V6.6878C4.55037 6.86592 4.6283 6.99581 4.78416 7.07745C4.94002 7.1591 5.09218 7.15167 5.24062 7.05519L7.0887 5.87508C7.22972 5.79344 7.30023 5.66727 7.30023 5.49656C7.30023 5.32585 7.22972 5.19968 7.0887 5.11803L5.24062 3.93793C5.09218 3.84144 4.94002 3.83402 4.78416 3.91566C4.6283 3.99731 4.55037 4.12719 4.55037 4.30532ZM5.66367 9.94978C5.04764 9.94978 4.46872 9.83281 3.92692 9.59887C3.38511 9.36522 2.91381 9.04801 2.51302 8.64721C2.11223 8.24642 1.79501 7.77512 1.56136 7.23332C1.32742 6.69151 1.21045 6.11259 1.21045 5.49656C1.21045 4.88053 1.32742 4.30161 1.56136 3.7598C1.79501 3.21799 2.11223 2.74669 2.51302 2.3459C2.91381 1.94511 3.38511 1.62775 3.92692 1.3938C4.46872 1.16016 5.04764 1.04333 5.66367 1.04333C6.2797 1.04333 6.85862 1.16016 7.40043 1.3938C7.94224 1.62775 8.41354 1.94511 8.81433 2.3459C9.21512 2.74669 9.53234 3.21799 9.76598 3.7598C9.99992 4.30161 10.1169 4.88053 10.1169 5.49656C10.1169 6.11259 9.99992 6.69151 9.76598 7.23332C9.53234 7.77512 9.21512 8.24642 8.81433 8.64721C8.41354 9.04801 7.94224 9.36522 7.40043 9.59887C6.85862 9.83281 6.2797 9.94978 5.66367 9.94978ZM5.66367 9.05914C6.6508 9.05914 7.49142 8.71223 8.18553 8.01842C8.87935 7.32431 9.22625 6.48369 9.22625 5.49656C9.22625 4.50943 8.87935 3.66881 8.18553 2.9747C7.49142 2.28089 6.6508 1.93398 5.66367 1.93398C4.67654 1.93398 3.83607 2.28089 3.14226 2.9747C2.44815 3.66881 2.10109 4.50943 2.10109 5.49656C2.10109 6.48369 2.44815 7.32431 3.14226 8.01842C3.83607 8.71223 4.67654 9.05914 5.66367 9.05914Z" fill="white"/>
</svg>
